  0
SECTION
  2
HEADER
  9
$ACADVER
  1
AC1021
  9
$ACADMAINTVER
 70
    25
  9
$DWGCODEPAGE
  3
ANSI_1252
  9
$INSBASE
 10
0.0
 20
0.0
 30
0.0
  9
$EXTMIN
 10
-86.6187377847
 20
-58.8094089715
 30
0.0
  9
$EXTMAX
 10
86.6187377847
 20
61.3817769023
 30
0.0
  9
$LIMMIN
 10
0.0
 20
0.0
  9
$LIMMAX
 10
420.0
 20
297.0
  9
$ORTHOMODE
 70
     0
  9
$REGENMODE
 70
     1
  9
$FILLMODE
 70
     1
  9
$QTEXTMODE
 70
     0
  9
$MIRRTEXT
 70
     1
  9
$LTSCALE
 40
1.0
  9
$ATTMODE
 70
     1
  9
$TEXTSIZE
 40
3.5
  9
$TRACEWID
 40
1.0
  9
$TEXTSTYLE
  7
Standard
  9
$CLAYER
  8
0
  9
$CELTYPE
  6
ByLayer
  9
$CECOLOR
 62
   256
  9
$CELTSCALE
 40
1.0
  9
$DISPSILH
 70
     0
  9
$DIMSCALE
 40
1.0
  9
$DIMASZ
 40
6.0
  9
$DIMEXO
 40
1.0
  9
$DIMDLI
 40
3.75
  9
$DIMRND
 40
0.0
  9
$DIMDLE
 40
0.0
  9
$DIMEXE
 40
1.0
  9
$DIMTP
 40
0.0
  9
$DIMTM
 40
0.0
  9
$DIMTXT
 40
3.5
  9
$DIMCEN
 40
2.5
  9
$DIMTSZ
 40
0.0
  9
$DIMTOL
 70
     0
  9
$DIMLIM
 70
     0
  9
$DIMTIH
 70
     1
  9
$DIMTOH
 70
     1
  9
$DIMSE1
 70
     0
  9
$DIMSE2
 70
     0
  9
$DIMTAD
 70
     1
  9
$DIMZIN
 70
     0
  9
$DIMBLK
  1

  9
$DIMASO
 70
     1
  9
$DIMSHO
 70
     1
  9
$DIMPOST
  1

  9
$DIMAPOST
  1

  9
$DIMALT
 70
     0
  9
$DIMALTD
 70
     3
  9
$DIMALTF
 40
0.0393700787
  9
$DIMLFAC
 40
1.0
  9
$DIMTOFL
 70
     1
  9
$DIMTVP
 40
0.0
  9
$DIMTIX
 70
     0
  9
$DIMSOXD
 70
     0
  9
$DIMSAH
 70
     0
  9
$DIMBLK1
  1

  9
$DIMBLK2
  1

  9
$DIMSTYLE
  2
ISO-25
  9
$DIMCLRD
 70
     0
  9
$DIMCLRE
 70
     0
  9
$DIMCLRT
 70
     0
  9
$DIMTFAC
 40
1.0
  9
$DIMGAP
 40
1.524
  9
$DIMJUST
 70
     0
  9
$DIMSD1
 70
     0
  9
$DIMSD2
 70
     0
  9
$DIMTOLJ
 70
     0
  9
$DIMTZIN
 70
     0
  9
$DIMALTZ
 70
     0
  9
$DIMALTTZ
 70
     0
  9
$DIMUPT
 70
     0
  9
$DIMDEC
 70
     2
  9
$DIMTDEC
 70
     2
  9
$DIMALTU
 70
     2
  9
$DIMALTTD
 70
     3
  9
$DIMTXSTY
  7
Standard
  9
$DIMAUNIT
 70
     0
  9
$DIMADEC
 70
     2
  9
$DIMALTRND
 40
0.0
  9
$DIMAZIN
 70
     0
  9
$DIMDSEP
 70
    44
  9
$DIMATFIT
 70
     3
  9
$DIMFRAC
 70
     0
  9
$DIMLDRBLK
  1

  9
$DIMLUNIT
 70
     2
  9
$DIMLWD
 70
    -2
  9
$DIMLWE
 70
    -2
  9
$DIMTMOVE
 70
     0
  9
$DIMFXL
 40
1.0
  9
$DIMFXLON
 70
     0
  9
$DIMJOGANG
 40
0.7853981634
  9
$DIMTFILL
 70
     0
  9
$DIMTFILLCLR
 70
     0
  9
$DIMARCSYM
 70
     0
  9
$DIMLTYPE
  6

  9
$DIMLTEX1
  6

  9
$DIMLTEX2
  6

  9
$LUNITS
 70
     2
  9
$LUPREC
 70
     2
  9
$SKETCHINC
 40
1.0
  9
$FILLETRAD
 40
10.0
  9
$AUNITS
 70
     0
  9
$AUPREC
 70
     2
  9
$MENU
  1
.
  9
$ELEVATION
 40
0.0
  9
$PELEVATION
 40
0.0
  9
$THICKNESS
 40
0.0
  9
$LIMCHECK
 70
     0
  9
$CHAMFERA
 40
10.0
  9
$CHAMFERB
 40
10.0
  9
$CHAMFERC
 40
20.0
  9
$CHAMFERD
 40
0.0
  9
$SKPOLY
 70
     0
  9
$TDCREATE
 40
2456238.393275567
  9
$TDUCREATE
 40
2456238.6016089
  9
$TDUPDATE
 40
2456238.393275579
  9
$TDUUPDATE
 40
2456238.601608912
  9
$TDINDWG
 40
0.0000000116
  9
$TDUSRTIMER
 40
0.0000000116
  9
$USRTIMER
 70
     1
  9
$ANGBASE
 50
0.0
  9
$ANGDIR
 70
     0
  9
$PDMODE
 70
     0
  9
$PDSIZE
 40
-1.0
  9
$PLINEWID
 40
0.0
  9
$SPLFRAME
 70
     0
  9
$SPLINETYPE
 70
     6
  9
$SPLINESEGS
 70
     8
  9
$HANDSEED
  5
16A
  9
$SURFTAB1
 70
     6
  9
$SURFTAB2
 70
     6
  9
$SURFTYPE
 70
     6
  9
$SURFU
 70
     6
  9
$SURFV
 70
     6
  9
$UCSBASE
  2

  9
$UCSNAME
  2

  9
$UCSORG
 10
0.0
 20
0.0
 30
0.0
  9
$UCSXDIR
 10
1.0
 20
0.0
 30
0.0
  9
$UCSYDIR
 10
0.0
 20
1.0
 30
0.0
  9
$UCSORTHOREF
  2

  9
$UCSORTHOVIEW
 70
     0
  9
$UCSORGTOP
 10
0.0
 20
0.0
 30
0.0
  9
$UCSORGBOTTOM
 10
0.0
 20
0.0
 30
0.0
  9
$UCSORGLEFT
 10
0.0
 20
0.0
 30
0.0
  9
$UCSORGRIGHT
 10
0.0
 20
0.0
 30
0.0
  9
$UCSORGFRONT
 10
0.0
 20
0.0
 30
0.0
  9
$UCSORGBACK
 10
0.0
 20
0.0
 30
0.0
  9
$PUCSBASE
  2

  9
$PUCSNAME
  2

  9
$PUCSORG
 10
0.0
 20
0.0
 30
0.0
  9
$PUCSXDIR
 10
1.0
 20
0.0
 30
0.0
  9
$PUCSYDIR
 10
0.0
 20
1.0
 30
0.0
  9
$PUCSORTHOREF
  2

  9
$PUCSORTHOVIEW
 70
     0
  9
$PUCSORGTOP
 10
0.0
 20
0.0
 30
0.0
  9
$PUCSORGBOTTOM
 10
0.0
 20
0.0
 30
0.0
  9
$PUCSORGLEFT
 10
0.0
 20
0.0
 30
0.0
  9
$PUCSORGRIGHT
 10
0.0
 20
0.0
 30
0.0
  9
$PUCSORGFRONT
 10
0.0
 20
0.0
 30
0.0
  9
$PUCSORGBACK
 10
0.0
 20
0.0
 30
0.0
  9
$USERI1
 70
     0
  9
$USERI2
 70
     0
  9
$USERI3
 70
     0
  9
$USERI4
 70
     0
  9
$USERI5
 70
     0
  9
$USERR1
 40
0.0
  9
$USERR2
 40
0.0
  9
$USERR3
 40
0.0
  9
$USERR4
 40
0.0
  9
$USERR5
 40
0.0
  9
$WORLDVIEW
 70
     1
  9
$SHADEDGE
 70
     3
  9
$SHADEDIF
 70
    70
  9
$TILEMODE
 70
     1
  9
$MAXACTVP
 70
    64
  9
$PINSBASE
 10
0.0
 20
0.0
 30
0.0
  9
$PLIMCHECK
 70
     0
  9
$PEXTMIN
 10
-119.9998638919
 20
-18.4182976075
 30
0.0
  9
$PEXTMAX
 10
119.9998638919
 20
21.5718180796
 30
0.0
  9
$PLIMMIN
 10
0.0
 20
0.0
  9
$PLIMMAX
 10
420.0
 20
297.0
  9
$UNITMODE
 70
     0
  9
$VISRETAIN
 70
     1
  9
$PLINEGEN
 70
     0
  9
$PSLTSCALE
 70
     1
  9
$TREEDEPTH
 70
  3020
  9
$CMLSTYLE
  2
Standard
  9
$CMLJUST
 70
     0
  9
$CMLSCALE
 40
20.0
  9
$PROXYGRAPHICS
 70
     1
  9
$MEASUREMENT
 70
     1
  9
$CELWEIGHT
370
    -1
  9
$ENDCAPS
280
     0
  9
$JOINSTYLE
280
     0
  9
$LWDISPLAY
290
     1
  9
$INSUNITS
 70
     4
  9
$HYPERLINKBASE
  1

  9
$STYLESHEET
  1

  9
$XEDIT
290
     1
  9
$CEPSNTYPE
380
     0
  9
$PSTYLEMODE
290
     1
  9
$FINGERPRINTGUID
  2
{6D3529FE-02B7-49C6-883F-881642C224A3}
  9
$VERSIONGUID
  2
{FAEB1C32-E019-11D5-929B-00C0DF256EC4}
  9
$EXTNAMES
290
     1
  9
$PSVPSCALE
 40
0.0
  9
$OLESTARTUP
290
     0
  9
$SORTENTS
280
   127
  9
$INDEXCTL
280
     0
  9
$HIDETEXT
280
     1
  9
$XCLIPFRAME
290
     0
  9
$HALOGAP
280
     0
  9
$OBSCOLOR
 70
   257
  9
$OBSLTYPE
280
     0
  9
$INTERSECTIONDISPLAY
280
     0
  9
$INTERSECTIONCOLOR
 70
   257
  9
$DIMASSOC
280
     2
  9
$PROJECTNAME
  1

  9
$CAMERADISPLAY
290
     0
  9
$LENSLENGTH
 40
50.0
  9
$CAMERAHEIGHT
 40
0.0
  9
$STEPSPERSEC
 40
2.0
  9
$STEPSIZE
 40
6.0
  9
$3DDWFPREC
 40
2.0
  9
$PSOLWIDTH
 40
5.0
  9
$PSOLHEIGHT
 40
80.0
  9
$LOFTANG1
 40
1.5707963268
  9
$LOFTANG2
 40
1.5707963268
  9
$LOFTMAG1
 40
0.0
  9
$LOFTMAG2
 40
0.0
  9
$LOFTPARAM
 70
     7
  9
$LOFTNORMALS
280
     1
  9
$LATITUDE
 40
37.795
  9
$LONGITUDE
 40
-122.394
  9
$NORTHDIRECTION
 40
0.0
  9
$TIMEZONE
 70
 -8000
  9
$LIGHTGLYPHDISPLAY
280
     1
  9
$TILEMODELIGHTSYNCH
280
     1
  9
$SOLIDHIST
280
     1
  9
$SHOWHIST
280
     1
  9
$DWFFRAME
280
     2
  9
$DGNFRAME
280
     2
  9
$REALWORLDSCALE
290
     1
  9
$INTERFERECOLOR
 62
   256
  9
$CSHADOW
280
     0
  9
$SHADOWPLANELOCATION
 40
0.0
  0
ENDSEC
  0
SECTION
  2
CLASSES
  0
CLASS
  1
ACDBDICTIONARYWDFLT
  2
AcDbDictionaryWithDefault
  3
ObjectDBX Classes
 90
        0
 91
        4
280
     0
281
     0
  0
CLASS
  1
VISUALSTYLE
  2
AcDbVisualStyle
  3
ObjectDBX Classes
 90
     4095
 91
        4
280
     0
281
     0
  0
CLASS
  1
SCALE
  2
AcDbScale
  3
ObjectDBX Classes
 90
     1153
 91
        4
280
     0
281
     0
  0
CLASS
  1
DICTIONARYVAR
  2
AcDbDictionaryVar
  3
ObjectDBX Classes
 90
        0
 91
        4
280
     0
281
     0
  0
ENDSEC
  0
SECTION
  2
TABLES
  0
TABLE
  2
VPORT
  5
8
330
0
100
AcDbSymbolTable
 70
     1
  0
VPORT
  5
29
330
8
100
AcDbSymbolTableRecord
100
AcDbViewportTableRecord
  2
*Active
 70
     0
 10
0.0
 20
0.0
 11
1.0
 21
1.0
 12
0.0
 22
1.2861839654
 13
0.0
 23
0.0
 14
10.0
 24
10.0
 15
10.0
 25
10.0
 16
0.0
 26
0.0
 36
1.0
 17
0.0
 27
0.0
 37
0.0
 40
122.5950095913
 41
1.4413492496
 42
50.0
 43
0.0
 44
0.0
 50
0.0
 51
0.0
 71
     0
 72
   100
 73
     1
 74
     3
 75
     0
 76
     0
 77
     0
 78
     0
281
     0
 65
     1
110
0.0
120
0.0
130
0.0
111
1.0
121
0.0
131
0.0
112
0.0
122
1.0
132
0.0
 79
     0
146
0.0
 60
     3
 61
     5
292
     1
282
     1
141
0.0
142
0.0
 63
   250
  0
ENDTAB
  0
TABLE
  2
LTYPE
  5
5
330
0
100
AcDbSymbolTable
 70
     6
  0
LTYPE
  5
14
330
5
100
AcDbSymbolTableRecord
100
AcDbLinetypeTableRecord
  2
ByBlock
 70
     0
  3

 72
    65
 73
     0
 40
0.0
  0
LTYPE
  5
15
330
5
100
AcDbSymbolTableRecord
100
AcDbLinetypeTableRecord
  2
ByLayer
 70
     0
  3

 72
    65
 73
     0
 40
0.0
  0
LTYPE
  5
16
330
5
100
AcDbSymbolTableRecord
100
AcDbLinetypeTableRecord
  2
Continuous
 70
     0
  3
Solid line
 72
    65
 73
     0
 40
0.0
  0
LTYPE
  5
3B
330
5
100
AcDbSymbolTableRecord
100
AcDbLinetypeTableRecord
  2
HIDDEN
 70
     0
  3
Hidden __ __ __ __ __ __ __ __ __ __ __ __ __ __
 72
    65
 73
     2
 40
1.905
 49
1.27
 74
     0
 49
-0.635
 74
     0
  0
LTYPE
  5
3C
330
5
100
AcDbSymbolTableRecord
100
AcDbLinetypeTableRecord
  2
PHANTOM
 70
     0
  3
Phantom ______  __  __  ______  __  __  ______
 72
    65
 73
     6
 40
12.7
 49
6.35
 74
     0
 49
-1.27
 74
     0
 49
1.27
 74
     0
 49
-1.27
 74
     0
 49
1.27
 74
     0
 49
-1.27
 74
     0
  0
LTYPE
  5
3D
330
5
100
AcDbSymbolTableRecord
100
AcDbLinetypeTableRecord
  2
CENTER
 70
     0
  3
Center ____ _ ____ _ ____ _ ____ _ ____ _ ____
 72
    65
 73
     4
 40
10.16
 49
6.35
 74
     0
 49
-1.27
 74
     0
 49
1.27
 74
     0
 49
-1.27
 74
     0
  0
LTYPE
  5
3E
330
5
100
AcDbSymbolTableRecord
100
AcDbLinetypeTableRecord
  2
CENTERX2
 70
     0
  3
Center (2x) ________  __  ________  __  _____
 72
    65
 73
     4
 40
20.32
 49
12.7
 74
     0
 49
-2.54
 74
     0
 49
2.54
 74
     0
 49
-2.54
 74
     0
  0
LTYPE
  5
3F
330
5
100
AcDbSymbolTableRecord
100
AcDbLinetypeTableRecord
  2
DOT2
 70
     0
  3
Dot (.5x) ........................................
 72
    65
 73
     2
 40
0.635
 49
0.0
 74
     0
 49
-0.635
 74
     0
  0
ENDTAB
  0
TABLE
  2
LAYER
  5
2
330
0
100
AcDbSymbolTable
 70
     1
  0
LAYER
  5
10
330
2
100
AcDbSymbolTableRecord
100
AcDbLayerTableRecord
  2
0
 70
     0
 62
     7
  6
Continuous
370
    -3
390
F
347
0
  0
ENDTAB
  0
TABLE
  2
STYLE
  5
3
330
0
100
AcDbSymbolTable
 70
     1
  0
STYLE
  5
11
330
3
100
AcDbSymbolTableRecord
100
AcDbTextStyleTableRecord
  2
Standard
 70
     0
 40
0.0
 41
1.0
 50
0.0
 71
     0
 42
2.5
  3
txt
  4

  0
ENDTAB
  0
TABLE
  2
VIEW
  5
6
330
0
100
AcDbSymbolTable
 70
     0
  0
ENDTAB
  0
TABLE
  2
UCS
  5
7
330
0
100
AcDbSymbolTable
 70
     0
  0
ENDTAB
  0
TABLE
  2
APPID
  5
9
330
0
100
AcDbSymbolTable
 70
     1
  0
APPID
  5
12
330
9
100
AcDbSymbolTableRecord
100
AcDbRegAppTableRecord
  2
ACAD
 70
     0
  0
ENDTAB
  0
TABLE
  2
DIMSTYLE
  5
A
330
0
100
AcDbSymbolTable
 70
     1
100
AcDbDimStyleTable
  0
DIMSTYLE
105
27
330
A
100
AcDbSymbolTableRecord
100
AcDbDimStyleTableRecord
  2
ISO-25
 70
     0
 41
2.5
 42
0.625
 43
3.75
 44
1.25
 73
     0
 74
     0
 77
     1
 78
     8
140
2.5
141
2.5
143
0.0393700787
147
0.625
171
     3
172
     1
271
     2
272
     2
274
     3
278
    44
283
     0
284
     8
340
11
  0
ENDTAB
  0
TABLE
  2
BLOCK_RECORD
  5
1
330
0
100
AcDbSymbolTable
 70
     9
  0
BLOCK_RECORD
  5
1F
330
1
100
AcDbSymbolTableRecord
100
AcDbBlockTableRecord
  2
*Model_Space
340
22
 70
     0
280
     1
281
     0
  0
BLOCK_RECORD
  5
1B
330
1
100
AcDbSymbolTableRecord
100
AcDbBlockTableRecord
  2
*Paper_Space
340
1E
 70
     0
280
     1
281
     0
  0
BLOCK_RECORD
  5
23
330
1
100
AcDbSymbolTableRecord
100
AcDbBlockTableRecord
  2
*Paper_Space0
340
26
 70
     0
280
     1
281
     0
  0
BLOCK_RECORD
  5
76
330
1
100
AcDbSymbolTableRecord
100
AcDbBlockTableRecord
  2
*Paper_Space1
340
77
 70
     0
280
     1
281
     0
  0
BLOCK_RECORD
  5
88
330
1
100
AcDbSymbolTableRecord
100
AcDbBlockTableRecord
  2
*Paper_Space2
340
89
 70
     0
280
     1
281
     0
  0
BLOCK_RECORD
  5
9A
330
1
100
AcDbSymbolTableRecord
100
AcDbBlockTableRecord
  2
*Paper_Space3
340
9B
 70
     0
280
     1
281
     0
  0
BLOCK_RECORD
  5
A6
330
1
100
AcDbSymbolTableRecord
100
AcDbBlockTableRecord
  2
*Paper_Space4
340
A7
 70
     0
280
     1
281
     0
  0
BLOCK_RECORD
  5
B2
330
1
100
AcDbSymbolTableRecord
100
AcDbBlockTableRecord
  2
*Paper_Space5
340
B3
 70
     0
280
     1
281
     0
  0
BLOCK_RECORD
  5
C6
330
1
100
AcDbSymbolTableRecord
100
AcDbBlockTableRecord
  2
*Paper_Space6
340
C7
 70
     0
280
     1
281
     0
  0
BLOCK_RECORD
  5
E2
330
1
100
AcDbSymbolTableRecord
100
AcDbBlockTableRecord
  2
*Paper_Space7
340
E3
 70
     0
280
     1
281
     0
  0
BLOCK_RECORD
  5
10B
330
1
100
AcDbSymbolTableRecord
100
AcDbBlockTableRecord
  2
*Paper_Space8
340
10C
 70
     0
280
     1
281
     0
  0
ENDTAB
  0
ENDSEC
  0
SECTION
  2
BLOCKS
  0
BLOCK
  5
20
330
1F
100
AcDbEntity
  8
0
100
AcDbBlockBegin
  2
*Model_Space
 70
     0
 10
0.0
 20
0.0
 30
0.0
  3
*Model_Space
  1

  0
ENDBLK
  5
21
330
1F
100
AcDbEntity
  8
0
100
AcDbBlockEnd
  0
BLOCK
  5
1C
330
1B
100
AcDbEntity
 67
     1
  8
0
100
AcDbBlockBegin
  2
*Paper_Space
 70
     0
 10
0.0
 20
0.0
 30
0.0
  3
*Paper_Space
  1

  0
ENDBLK
  5
1D
330
1B
100
AcDbEntity
 67
     1
  8
0
100
AcDbBlockEnd
  0
BLOCK
  5
24
330
23
100
AcDbEntity
  8
0
100
AcDbBlockBegin
  2
*Paper_Space0
 70
     0
 10
0.0
 20
0.0
 30
0.0
  3
*Paper_Space0
  1

  0
LINE
  5
70
330
23
100
AcDbEntity
  8
0
  6
Continuous
 62
     7
370
    15
100
AcDbLine
 10
-119.9998638919
 20
2.5
 30
0.0
 11
-119.9998638919
 21
-2.5
 31
0.0
  0
LINE
  5
71
330
23
100
AcDbEntity
  8
0
  6
Continuous
 62
     7
370
    15
100
AcDbLine
 10
119.9998638919
 20
-2.5
 30
0.0
 11
119.9998638919
 21
2.5
 31
0.0
  0
LINE
  5
72
330
23
100
AcDbEntity
  8
0
  6
Continuous
 62
     7
370
    15
100
AcDbLine
 10
-100.0
 20
-2.5
 30
0.0
 11
-100.0
 21
2.5
 31
0.0
  0
LINE
  5
73
330
23
100
AcDbEntity
  8
0
  6
Continuous
 62
     7
370
    15
100
AcDbLine
 10
-119.9998638919
 20
-2.5
 30
0.0
 11
119.9998638919
 21
-2.5
 31
0.0
  0
LINE
  5
74
330
23
100
AcDbEntity
  8
0
  6
Continuous
 62
     7
370
    15
100
AcDbLine
 10
-119.9998638919
 20
2.5
 30
0.0
 11
119.9998638919
 21
2.5
 31
0.0
  0
LINE
  5
75
330
23
100
AcDbEntity
  8
0
  6
Continuous
 62
     7
370
    15
100
AcDbLine
 10
100.0
 20
-2.5
 30
0.0
 11
100.0
 21
2.5
 31
0.0
  0
VIEWPORT
  5
13B
330
23
100
AcDbEntity
  8
0
100
AcDbViewport
 10
0.0
 20
0.0
 30
0.0
 40
243.84
 41
204.216
 68
     1
 69
     1
 12
0.0
 22
1.2861839654
 13
0.0
 23
0.0
 14
10.0
 24
10.0
 15
10.0
 25
10.0
 16
0.0
 26
0.0
 36
1.0
 17
0.0
 27
0.0
 37
0.0
 42
50.0
 43
0.0
 44
0.0
 45
147.9881135052
 50
0.0
 51
0.0
 72
   100
 90
   557152
  1

281
     0
 71
     1
 74
     0
110
0.0
120
0.0
130
0.0
111
1.0
121
0.0
131
0.0
112
0.0
122
1.0
132
0.0
 79
     0
146
0.0
170
     0
 61
     5
292
     1
282
     1
141
0.0
142
0.0
 63
   256
  0
ENDBLK
  5
25
330
23
100
AcDbEntity
  8
0
100
AcDbBlockEnd
  0
BLOCK
  5
78
330
76
100
AcDbEntity
  8
0
100
AcDbBlockBegin
  2
*Paper_Space1
 70
     0
 10
0.0
 20
0.0
 30
0.0
  3
*Paper_Space1
  1

  0
CIRCLE
  5
7A
330
76
100
AcDbEntity
  8
0
  6
Continuous
 62
     7
370
    15
100
AcDbCircle
 10
-99.9998638919
 20
1.5718180801
 30
0.0
 40
2.950000000000003
  0
CIRCLE
  5
7B
330
76
100
AcDbEntity
  8
0
  6
Continuous
 62
     7
370
    15
100
AcDbCircle
 10
99.9998638919
 20
1.5718180801
 30
0.0
 40
2.950000000000003
  0
CIRCLE
  5
7C
330
76
100
AcDbEntity
  8
0
  6
Continuous
 62
     7
370
    15
100
AcDbCircle
 10
-35.0
 20
10.0
 30
0.0
 40
2.949999999999996
  0
CIRCLE
  5
7D
330
76
100
AcDbEntity
  8
0
  6
Continuous
 62
     7
370
    15
100
AcDbCircle
 10
-35.0
 20
-10.0
 30
0.0
 40
2.950000000000053
  0
CIRCLE
  5
7E
330
76
100
AcDbEntity
  8
0
  6
Continuous
 62
     7
370
    15
100
AcDbCircle
 10
35.0
 20
-10.0
 30
0.0
 40
2.950000000000053
  0
CIRCLE
  5
7F
330
76
100
AcDbEntity
  8
0
  6
Continuous
 62
     7
370
    15
100
AcDbCircle
 10
35.0
 20
10.0
 30
0.0
 40
2.949999999999996
  0
LINE
  5
84
330
76
100
AcDbEntity
  8
0
  6
Continuous
 62
     7
370
    15
100
AcDbLine
 10
100.0
 20
21.5718180796
 30
0.0
 11
-100.0
 21
21.5718180796
 31
0.0
  0
LINE
  5
85
330
76
100
AcDbEntity
  8
0
  6
Continuous
 62
     7
370
    15
100
AcDbLine
 10
-100.6285727242
 20
-18.4182976075
 30
0.0
 11
100.6285727242
 21
-18.4182976075
 31
0.0
  0
ARC
  5
86
330
76
100
AcDbEntity
  8
0
  6
Continuous
 62
     7
370
    15
100
AcDbCircle
 10
99.9998638919
 20
1.5718180801
 30
0.0
 40
20.0
100
AcDbArc
 50
271.8014149038
 51
89.999610079
  0
ARC
  5
87
330
76
100
AcDbEntity
  8
0
  6
Continuous
 62
     7
370
    15
100
AcDbCircle
 10
-99.9998638919
 20
1.5718180801
 30
0.0
 40
20.0
100
AcDbArc
 50
90.000389921
 51
268.1985850962
  0
VIEWPORT
  5
13C
330
76
100
AcDbEntity
  8
0
100
AcDbViewport
 10
0.0
 20
0.0
 30
0.0
 40
243.84
 41
204.216
 68
     1
 69
     1
 12
0.0
 22
1.2861839654
 13
0.0
 23
0.0
 14
10.0
 24
10.0
 15
10.0
 25
10.0
 16
0.0
 26
0.0
 36
1.0
 17
0.0
 27
0.0
 37
0.0
 42
50.0
 43
0.0
 44
0.0
 45
147.9881135052
 50
0.0
 51
0.0
 72
   100
 90
   557152
  1

281
     0
 71
     1
 74
     0
110
0.0
120
0.0
130
0.0
111
1.0
121
0.0
131
0.0
112
0.0
122
1.0
132
0.0
 79
     0
146
0.0
170
     0
 61
     5
292
     1
282
     1
141
0.0
142
0.0
 63
   256
  0
ENDBLK
  5
79
330
76
100
AcDbEntity
  8
0
100
AcDbBlockEnd
  0
BLOCK
  5
8A
330
88
100
AcDbEntity
  8
0
100
AcDbBlockBegin
  2
*Paper_Space2
 70
     0
 10
0.0
 20
0.0
 30
0.0
  3
*Paper_Space2
  1

  0
CIRCLE
  5
90
330
88
100
AcDbEntity
  8
0
  6
Continuous
 62
     7
370
    15
100
AcDbCircle
 10
-35.0
 20
10.0
 30
0.0
 40
2.949999999999996
  0
CIRCLE
  5
91
330
88
100
AcDbEntity
  8
0
  6
Continuous
 62
     7
370
    15
100
AcDbCircle
 10
-35.0
 20
-10.0
 30
0.0
 40
2.95000000000001
  0
CIRCLE
  5
92
330
88
100
AcDbEntity
  8
0
  6
Continuous
 62
     7
370
    15
100
AcDbCircle
 10
35.0
 20
-10.0
 30
0.0
 40
2.950000000000053
  0
CIRCLE
  5
93
330
88
100
AcDbEntity
  8
0
  6
Continuous
 62
     7
370
    15
100
AcDbCircle
 10
35.0
 20
10.0
 30
0.0
 40
2.95000000000001
  0
CIRCLE
  5
94
330
88
100
AcDbEntity
  8
0
  6
Continuous
 62
     7
370
    15
100
AcDbCircle
 10
-99.9998638919
 20
1.5718180801
 30
0.0
 40
2.950000000000003
  0
CIRCLE
  5
95
330
88
100
AcDbEntity
  8
0
  6
Continuous
 62
     7
370
    15
100
AcDbCircle
 10
99.9998638919
 20
1.5718180801
 30
0.0
 40
2.950000000000003
  0
LINE
  5
96
330
88
100
AcDbEntity
  8
0
  6
Continuous
 62
     7
370
    15
100
AcDbLine
 10
100.6285727242
 20
-18.4182976075
 30
0.0
 11
-100.6285727242
 21
-18.4182976075
 31
0.0
  0
LINE
  5
97
330
88
100
AcDbEntity
  8
0
  6
Continuous
 62
     7
370
    15
100
AcDbLine
 10
-100.0
 20
21.5718180796
 30
0.0
 11
100.0
 21
21.5718180796
 31
0.0
  0
ARC
  5
98
330
88
100
AcDbEntity
  8
0
  6
Continuous
 62
     7
370
    15
100
AcDbCircle
 10
-99.9998638919
 20
1.5718180801
 30
0.0
 40
20.00000000000001
100
AcDbArc
 50
90.000389921
 51
268.1985850962
  0
ARC
  5
99
330
88
100
AcDbEntity
  8
0
  6
Continuous
 62
     7
370
    15
100
AcDbCircle
 10
99.9998638919
 20
1.5718180801
 30
0.0
 40
20.0
100
AcDbArc
 50
271.8014149038
 51
89.999610079
  0
VIEWPORT
  5
13D
330
88
100
AcDbEntity
  8
0
100
AcDbViewport
 10
0.0
 20
0.0
 30
0.0
 40
243.84
 41
204.216
 68
     1
 69
     1
 12
0.0
 22
1.2861839654
 13
0.0
 23
0.0
 14
10.0
 24
10.0
 15
10.0
 25
10.0
 16
0.0
 26
0.0
 36
1.0
 17
0.0
 27
0.0
 37
0.0
 42
50.0
 43
0.0
 44
0.0
 45
147.9881135052
 50
0.0
 51
0.0
 72
   100
 90
   557152
  1

281
     0
 71
     1
 74
     0
110
0.0
120
0.0
130
0.0
111
1.0
121
0.0
131
0.0
112
0.0
122
1.0
132
0.0
 79
     0
146
0.0
170
     0
 61
     5
292
     1
282
     1
141
0.0
142
0.0
 63
   256
  0
ENDBLK
  5
8B
330
88
100
AcDbEntity
  8
0
100
AcDbBlockEnd
  0
BLOCK
  5
9C
330
9A
100
AcDbEntity
  8
0
100
AcDbBlockBegin
  2
*Paper_Space3
 70
     0
 10
0.0
 20
0.0
 30
0.0
  3
*Paper_Space3
  1

  0
LINE
  5
A2
330
9A
100
AcDbEntity
  8
0
  6
Continuous
 62
     7
370
    15
100
AcDbLine
 10
2.5
 20
21.5718180796
 30
0.0
 11
-2.5
 21
21.5718180796
 31
0.0
  0
LINE
  5
A3
330
9A
100
AcDbEntity
  8
0
  6
Continuous
 62
     7
370
    15
100
AcDbLine
 10
2.5
 20
21.5718180796
 30
0.0
 11
2.5
 21
-18.4182976075
 31
0.0
  0
LINE
  5
A4
330
9A
100
AcDbEntity
  8
0
  6
Continuous
 62
     7
370
    15
100
AcDbLine
 10
2.5
 20
-18.4182976075
 30
0.0
 11
-2.5
 21
-18.4182976075
 31
0.0
  0
LINE
  5
A5
330
9A
100
AcDbEntity
  8
0
  6
Continuous
 62
     7
370
    15
100
AcDbLine
 10
-2.5
 20
21.5718180796
 30
0.0
 11
-2.5
 21
-18.4182976075
 31
0.0
  0
VIEWPORT
  5
13E
330
9A
100
AcDbEntity
  8
0
100
AcDbViewport
 10
0.0
 20
0.0
 30
0.0
 40
243.84
 41
204.216
 68
     1
 69
     1
 12
0.0
 22
1.2861839654
 13
0.0
 23
0.0
 14
10.0
 24
10.0
 15
10.0
 25
10.0
 16
0.0
 26
0.0
 36
1.0
 17
0.0
 27
0.0
 37
0.0
 42
50.0
 43
0.0
 44
0.0
 45
147.9881135052
 50
0.0
 51
0.0
 72
   100
 90
   557152
  1

281
     0
 71
     1
 74
     0
110
0.0
120
0.0
130
0.0
111
1.0
121
0.0
131
0.0
112
0.0
122
1.0
132
0.0
 79
     0
146
0.0
170
     0
 61
     5
292
     1
282
     1
141
0.0
142
0.0
 63
   256
  0
ENDBLK
  5
9D
330
9A
100
AcDbEntity
  8
0
100
AcDbBlockEnd
  0
BLOCK
  5
A8
330
A6
100
AcDbEntity
  8
0
100
AcDbBlockBegin
  2
*Paper_Space4
 70
     0
 10
0.0
 20
0.0
 30
0.0
  3
*Paper_Space4
  1

  0
LINE
  5
AE
330
A6
100
AcDbEntity
  8
0
  6
Continuous
 62
     7
370
    15
100
AcDbLine
 10
-2.5
 20
-18.4182976075
 30
0.0
 11
2.5
 21
-18.4182976075
 31
0.0
  0
LINE
  5
AF
330
A6
100
AcDbEntity
  8
0
  6
Continuous
 62
     7
370
    15
100
AcDbLine
 10
-2.5
 20
21.5718180796
 30
0.0
 11
2.5
 21
21.5718180796
 31
0.0
  0
LINE
  5
B0
330
A6
100
AcDbEntity
  8
0
  6
Continuous
 62
     7
370
    15
100
AcDbLine
 10
2.5
 20
-18.4182976075
 30
0.0
 11
2.5
 21
21.5718180796
 31
0.0
  0
LINE
  5
B1
330
A6
100
AcDbEntity
  8
0
  6
Continuous
 62
     7
370
    15
100
AcDbLine
 10
-2.5
 20
-18.4182976075
 30
0.0
 11
-2.5
 21
21.5718180796
 31
0.0
  0
VIEWPORT
  5
13F
330
A6
100
AcDbEntity
  8
0
100
AcDbViewport
 10
0.0
 20
0.0
 30
0.0
 40
243.84
 41
204.216
 68
     1
 69
     1
 12
0.0
 22
1.2861839654
 13
0.0
 23
0.0
 14
10.0
 24
10.0
 15
10.0
 25
10.0
 16
0.0
 26
0.0
 36
1.0
 17
0.0
 27
0.0
 37
0.0
 42
50.0
 43
0.0
 44
0.0
 45
147.9881135052
 50
0.0
 51
0.0
 72
   100
 90
   557152
  1

281
     0
 71
     1
 74
     0
110
0.0
120
0.0
130
0.0
111
1.0
121
0.0
131
0.0
112
0.0
122
1.0
132
0.0
 79
     0
146
0.0
170
     0
 61
     5
292
     1
282
     1
141
0.0
142
0.0
 63
   256
  0
ENDBLK
  5
A9
330
A6
100
AcDbEntity
  8
0
100
AcDbBlockEnd
  0
BLOCK
  5
B4
330
B2
100
AcDbEntity
  8
0
100
AcDbBlockBegin
  2
*Paper_Space5
 70
     0
 10
0.0
 20
0.0
 30
0.0
  3
*Paper_Space5
  1

  0
LINE
  5
C0
330
B2
100
AcDbEntity
  8
0
  6
Continuous
 62
     7
370
    15
100
AcDbLine
 10
-119.9998638919
 20
2.5
 30
0.0
 11
-119.9998638919
 21
-2.5
 31
0.0
  0
LINE
  5
C1
330
B2
100
AcDbEntity
  8
0
  6
Continuous
 62
     7
370
    15
100
AcDbLine
 10
119.9998638919
 20
-2.5
 30
0.0
 11
119.9998638919
 21
2.5
 31
0.0
  0
LINE
  5
C2
330
B2
100
AcDbEntity
  8
0
  6
Continuous
 62
     7
370
    15
100
AcDbLine
 10
-119.9998638919
 20
2.5
 30
0.0
 11
119.9998638919
 21
2.5
 31
0.0
  0
LINE
  5
C3
330
B2
100
AcDbEntity
  8
0
  6
Continuous
 62
     7
370
    15
100
AcDbLine
 10
-100.6285727242
 20
2.5
 30
0.0
 11
-100.6285727242
 21
-2.5
 31
0.0
  0
LINE
  5
C4
330
B2
100
AcDbEntity
  8
0
  6
Continuous
 62
     7
370
    15
100
AcDbLine
 10
-119.9998638919
 20
-2.5
 30
0.0
 11
119.9998638919
 21
-2.5
 31
0.0
  0
LINE
  5
C5
330
B2
100
AcDbEntity
  8
0
  6
Continuous
 62
     7
370
    15
100
AcDbLine
 10
100.6285727242
 20
2.5
 30
0.0
 11
100.6285727242
 21
-2.5
 31
0.0
  0
VIEWPORT
  5
140
330
B2
100
AcDbEntity
  8
0
100
AcDbViewport
 10
0.0
 20
0.0
 30
0.0
 40
243.84
 41
204.216
 68
     1
 69
     1
 12
0.0
 22
1.2861839654
 13
0.0
 23
0.0
 14
10.0
 24
10.0
 15
10.0
 25
10.0
 16
0.0
 26
0.0
 36
1.0
 17
0.0
 27
0.0
 37
0.0
 42
50.0
 43
0.0
 44
0.0
 45
147.9881135052
 50
0.0
 51
0.0
 72
   100
 90
   557152
  1

281
     0
 71
     1
 74
     0
110
0.0
120
0.0
130
0.0
111
1.0
121
0.0
131
0.0
112
0.0
122
1.0
132
0.0
 79
     0
146
0.0
170
     0
 61
     5
292
     1
282
     1
141
0.0
142
0.0
 63
   256
  0
ENDBLK
  5
B5
330
B2
100
AcDbEntity
  8
0
100
AcDbBlockEnd
  0
BLOCK
  5
C8
330
C6
100
AcDbEntity
  8
0
100
AcDbBlockBegin
  2
*Paper_Space6
 70
     0
 10
0.0
 20
0.0
 30
0.0
  3
*Paper_Space6
  1

  0
LWPOLYLINE
  5
CD
330
C6
100
AcDbEntity
  8
0
  6
Continuous
 62
     7
370
    15
100
AcDbPolyline
 90
       35
 70
   128
 43
0.0
 10
69.3873792014
 20
-57.1367933484
 10
70.6767285588
 20
-57.7659803286
 10
71.9515792481
 20
-58.2512723682
 10
73.2012712013
 20
-58.5886115438
 10
74.4153547235
 20
-58.7751770872
 10
75.5836778705
 20
-58.8094089715
 10
76.6964713384
 20
-58.6910209559
 10
77.744430152
 20
-58.4210029793
 10
78.7187914718
 20
-58.0016128825
 10
79.6114078669
 20
-57.4363575288
 10
80.4148154426
 20
-56.7299634797
 10
81.122296252
 20
-55.888337473
 10
81.7279344701
 20
-54.918517031
 10
82.2266658611
 20
-53.8286116146
 10
82.6143201246
 20
-52.6277348132
 10
82.8876557665
 20
-51.3259281386
 10
83.0443872045
 20
-49.9340770596
 10
83.0832038788
 20
-48.46381998
 10
83.0037812116
 20
-46.9274509201
 10
82.8067833206
 20
-45.3378167164
 10
82.4938574662
 20
-43.7082095988
 10
82.0676202769
 20
-42.0522560436
 10
81.5316358702
 20
-40.3838028309
 10
80.8903860492
 20
-38.7168012607
 10
80.1492328277
 20
-37.0651904948
 10
79.314373593
 20
-35.4427809998
 10
78.392789285
 20
-33.8631390665
 10
77.3921860229
 20
-32.3394733715
 10
76.3209306679
 20
-30.884524528
 10
75.1879808608
 20
-29.5104585518
 10
74.0028101205
 20
-28.2287651306
 10
72.7753286275
 20
-27.0501615501
 10
71.5158003571
 20
-25.9845030775
 10
70.2347572539
 20
-25.0407005537
 10
68.9429111657
 20
-24.2266458823
  0
LWPOLYLINE
  5
CF
330
C6
100
AcDbEntity
  8
0
  6
Continuous
 62
     7
370
    15
100
AcDbPolyline
 90
       35
 70
   128
 43
0.0
 10
-72.4784450716
 20
57.4141652999
 10
-73.7702911598
 20
58.0916443739
 10
-75.051334263
 20
58.6269027342
 10
-76.3108625334
 20
59.0154646487
 10
-77.5383440264
 20
59.2540810337
 10
-78.7235147668
 20
59.3407566228
 10
-79.8564645738
 20
59.2747666505
 10
-80.9277199289
 20
59.056662913
 10
-81.9283231909
 20
58.6882691537
 10
-82.8499074989
 20
58.1726658137
 10
-83.6847667336
 20
57.5141642738
 10
-84.4259199552
 20
56.718270803
 10
-85.0671697761
 20
55.7916405169
 10
-85.6031541829
 20
54.7420217279
 10
-86.0293913721
 20
53.5781911563
 10
-86.3423172265
 20
52.3098805398
 10
-86.5393151175
 20
50.9476952596
 10
-86.6187377847
 20
49.5030256594
 10
-86.5799211104
 20
47.9879518015
 10
-86.4231896725
 20
46.4151424562
 10
-86.1498540305
 20
44.7977491668
 10
-85.762199767
 20
43.1492962797
 10
-85.263468376
 20
41.483567856
 10
-84.6578301579
 20
39.8144924114
 10
-83.9503493486
 20
38.1560264492
 10
-83.1469417729
 20
36.5220377576
 10
-82.2543253778
 20
34.9261894509
 10
-81.279964058
 20
33.38182572
 10
-80.2320052444
 20
31.9018602517
 10
-79.1192117765
 20
30.4986682459
 10
-77.9508886294
 20
29.183982937
 10
-76.7368051073
 20
27.9687974829
 10
-75.487113154
 20
26.8632730415
 10
-74.2122624647
 20
25.8766538057
 10
-72.9229131073
 20
25.0171897048
  0
LWPOLYLINE
  5
D0
330
C6
100
AcDbEntity
  8
0
  6
Continuous
 62
     7
370
    15
100
AcDbPolyline
 90
       27
 70
   128
 43
0.0
 10
-70.3923838241
 20
39.8790915378
 10
-70.4529981761
 20
40.4905459284
 10
-70.6313185461
 20
41.1364486535
 10
-70.9169816025
 20
41.7792621945
 10
-71.2933856467
 20
42.3816285649
 10
-71.7386554438
 20
42.9085404206
 10
-72.2269135319
 20
43.3293755601
 10
-72.7297841254
 20
43.6196765745
 10
-73.2180422134
 20
43.7625722242
 10
-73.6633120106
 20
43.7497579333
 10
-74.0397160548
 20
43.581978422
 10
-74.3253791112
 20
43.2689844255
 10
-74.5036994812
 20
42.8289660172
 10
-74.5643138331
 20
42.2874954676
 10
-74.5036994812
 20
41.676041077
 10
-74.3253791112
 20
41.0301383519
 10
-74.0397160548
 20
40.3873248109
 10
-73.6633120106
 20
39.7849584406
 10
-73.2180422134
 20
39.2580465848
 10
-72.7297841254
 20
38.8372114454
 10
-72.2269135319
 20
38.5469104309
 10
-71.7386554438
 20
38.4040147813
 10
-71.2933856467
 20
38.4168290721
 10
-70.9169816025
 20
38.5846085835
 10
-70.6313185461
 20
38.89760258
 10
-70.4529981761
 20
39.3376209882
 10
-70.3923838241
 20
39.8790915378
  0
LWPOLYLINE
  5
D1
330
C6
100
AcDbEntity
  8
0
  6
Continuous
 62
     7
370
    15
100
AcDbPolyline
 90
       27
 70
   128
 43
0.0
 10
66.8568499182
 20
-39.3532045948
 10
66.9174642702
 20
-39.9646589855
 10
67.0957846402
 20
-40.6105617106
 10
67.3814476965
 20
-41.2533752516
 10
67.7578517407
 20
-41.8557416219
 10
68.2031215379
 20
-42.3826534777
 10
68.6913796259
 20
-42.8034886171
 10
69.1942502195
 20
-43.0937896316
 10
69.6825083075
 20
-43.2366852812
 10
70.1277781047
 20
-43.2238709904
 10
70.5041821489
 20
-43.056091479
 10
70.7898452052
 20
-42.7430974825
 10
70.9681655753
 20
-42.3030790743
 10
71.0287799272
 20
-41.7616085247
 10
70.9681655753
 20
-41.1501541341
 10
70.7898452052
 20
-40.5042514089
 10
70.5041821489
 20
-39.861437868
 10
70.1277781047
 20
-39.2590714976
 10
69.6825083075
 20
-38.7321596419
 10
69.1942502195
 20
-38.3113245024
 10
68.6913796259
 20
-38.021023488
 10
68.2031215379
 20
-37.8781278383
 10
67.7578517407
 20
-37.8909421292
 10
67.3814476965
 20
-38.0587216405
 10
67.0957846402
 20
-38.371715637
 10
66.9174642702
 20
-38.8117340453
 10
66.8568499182
 20
-39.3532045948
  0
LWPOLYLINE
  5
D2
330
C6
100
AcDbEntity
  8
0
  6
Continuous
 62
     7
370
    15
100
AcDbPolyline
 90
       27
 70
   128
 43
0.0
 10
-24.43053929
 20
20.227837971
 10
-24.4911536419
 20
20.8392923617
 10
-24.669474012
 20
21.4851950868
 10
-24.9551370683
 20
22.1280086278
 10
-25.3315411125
 20
22.7303749981
 10
-25.7768109097
 20
23.2572868539
 10
-26.2650689977
 20
23.6781219933
 10
-26.7679395913
 20
23.9684230078
 10
-27.2561976793
 20
24.1113186574
 10
-27.7014674765
 20
24.0985043666
 10
-28.0778715207
 20
23.9307248552
 10
-28.363534577
 20
23.6177308587
 10
-28.5418549471
 20
23.1777124505
 10
-28.602469299
 20
22.6362419009
 10
-28.5418549471
 20
22.0247875103
 10
-28.363534577
 20
21.3788847851
 10
-28.0778715207
 20
20.7360712442
 10
-27.7014674765
 20
20.1337048738
 10
-27.2561976793
 20
19.606793018
 10
-26.7679395913
 20
19.1859578786
 10
-26.2650689977
 20
18.8956568642
 10
-25.7768109097
 20
18.7527612145
 10
-25.3315411125
 20
18.7655755054
 10
-24.9551370683
 20
18.9333550167
 10
-24.669474012
 20
19.2463490132
 10
-24.4911536419
 20
19.6863674215
 10
-24.43053929
 20
20.227837971
  0
LWPOLYLINE
  5
D3
330
C6
100
AcDbEntity
  8
0
  6
Continuous
 62
     7
370
    15
100
AcDbPolyline
 90
       27
 70
   128
 43
0.0
 10
-28.602469299
 20
6.3054256632
 10
-28.5418549471
 20
5.6939712725
 10
-28.363534577
 20
5.0480685474
 10
-28.0778715207
 20
4.4052550065
 10
-27.7014674765
 20
3.8028886361
 10
-27.2561976793
 20
3.2759767803
 10
-26.7679395913
 20
2.8551416409
 10
-26.2650689977
 20
2.5648406265
 10
-25.7768109097
 20
2.4219449768
 10
-25.3315411125
 20
2.4347592677
 10
-24.9551370683
 20
2.602538779
 10
-24.669474012
 20
2.9155327755
 10
-24.4911536419
 20
3.3555511838
 10
-24.43053929
 20
3.8970217333
 10
-24.4911536419
 20
4.508476124
 10
-24.669474012
 20
5.1543788491
 10
-24.9551370683
 20
5.7971923901
 10
-25.3315411125
 20
6.3995587604
 10
-25.7768109097
 20
6.9264706162
 10
-26.2650689977
 20
7.3473057556
 10
-26.7679395913
 20
7.63760677
 10
-27.2561976793
 20
7.7805024197
 10
-27.7014674765
 20
7.7676881289
 10
-28.0778715207
 20
7.5999086175
 10
-28.363534577
 20
7.286914621
 10
-28.5418549471
 20
6.8468962127
 10
-28.602469299
 20
6.3054256632
  0
LWPOLYLINE
  5
D4
330
C6
100
AcDbEntity
  8
0
  6
Continuous
 62
     7
370
    15
100
AcDbPolyline
 90
       27
 70
   128
 43
0.0
 10
25.0669353931
 20
-24.6772621805
 10
25.0063210411
 20
-24.0658077898
 10
24.8280006711
 20
-23.4199050647
 10
24.5423376147
 20
-22.7770915237
 10
24.1659335705
 20
-22.1747251534
 10
23.7206637734
 20
-21.6478132976
 10
23.2324056853
 20
-21.2269781582
 10
22.7295350918
 20
-20.9366771438
 10
22.2412770038
 20
-20.7937814941
 10
21.7960072066
 20
-20.8065957849
 10
21.4196031624
 20
-20.9743752963
 10
21.133940106
 20
-21.2873692928
 10
20.955619736
 20
-21.727387701
 10
20.8950053841
 20
-22.2688582506
 10
20.955619736
 20
-22.8803126413
 10
21.133940106
 20
-23.5262153664
 10
21.4196031624
 20
-24.1690289073
 10
21.7960072066
 20
-24.7713952777
 10
22.2412770038
 20
-25.2983071335
 10
22.7295350918
 20
-25.7191422729
 10
23.2324056853
 20
-26.0094432873
 10
23.7206637734
 20
-26.152338937
 10
24.1659335705
 20
-26.1395246461
 10
24.5423376147
 20
-25.9717451348
 10
24.8280006711
 20
-25.6587511383
 10
25.0063210411
 20
-25.21873273
 10
25.0669353931
 20
-24.6772621805
  0
LWPOLYLINE
  5
D5
330
C6
100
AcDbEntity
  8
0
  6
Continuous
 62
     7
370
    15
100
AcDbPolyline
 90
       27
 70
   128
 43
0.0
 10
20.8950053841
 20
-5.9380420129
 10
20.955619736
 20
-6.5494964035
 10
21.133940106
 20
-7.1953991287
 10
21.4196031624
 20
-7.8382126696
 10
21.7960072066
 20
-8.44057904
 10
22.2412770038
 20
-8.9674908958
 10
22.7295350918
 20
-9.3883260352
 10
23.2324056853
 20
-9.6786270496
 10
23.7206637734
 20
-9.8215226993
 10
24.1659335705
 20
-9.8087084084
 10
24.5423376147
 20
-9.6409288971
 10
24.8280006711
 20
-9.3279349006
 10
25.0063210411
 20
-8.8879164923
 10
25.0669353931
 20
-8.3464459428
 10
25.0063210411
 20
-7.7349915521
 10
24.8280006711
 20
-7.089088827
 10
24.5423376147
 20
-6.446275286
 10
24.1659335705
 20
-5.8439089157
 10
23.7206637734
 20
-5.3169970599
 10
23.2324056853
 20
-4.8961619205
 10
22.7295350918
 20
-4.605860906
 10
22.2412770038
 20
-4.4629652564
 10
21.7960072066
 20
-4.4757795472
 10
21.4196031624
 20
-4.6435590586
 10
21.133940106
 20
-4.9565530551
 10
20.955619736
 20
-5.3965714633
 10
20.8950053841
 20
-5.9380420129
  0
LWPOLYLINE
  5
D7
330
C6
100
AcDbEntity
  8
0
  6
Continuous
 62
     7
370
    15
100
AcDbPolyline
 90
       27
 70
   128
 43
0.0
 10
82.477536155
 20
-55.8373635278
 10
83.1469417729
 20
-55.3953372492
 10
83.9503493486
 20
-54.6889432002
 10
84.6578301579
 20
-53.8473171934
 10
85.263468376
 20
-52.8774967514
 10
85.762199767
 20
-51.787591335
 10
86.1498540305
 20
-50.5867145337
 10
86.4231896725
 20
-49.284907859
 10
86.5799211104
 20
-47.8930567801
 10
86.6187377847
 20
-46.4227997005
 10
86.5393151175
 20
-44.8864306405
 10
86.3423172265
 20
-43.2967964368
 10
86.0293913721
 20
-41.6671893193
 10
85.6031541829
 20
-40.011235764
 10
85.0671697761
 20
-38.3427825513
 10
84.4259199552
 20
-36.6757809811
 10
83.6847667336
 20
-35.0241702153
 10
82.8499074989
 20
-33.4017607202
 10
81.9283231909
 20
-31.822118787
 10
80.9277199289
 20
-30.2984530919
 10
79.8564645738
 20
-28.8435042485
 10
78.7235147668
 20
-27.4694382722
 10
77.5383440264
 20
-26.1877448511
 10
76.3108625334
 20
-25.0091412706
 10
75.051334263
 20
-23.943482798
 10
73.7702911598
 20
-22.9996802741
 10
72.4784450716
 20
-22.1856256028
  0
LWPOLYLINE
  5
DA
330
C6
100
AcDbEntity
  8
0
  6
Continuous
 62
     7
370
    15
100
AcDbPolyline
 90
       10
 70
   128
 43
0.0
 10
-68.9429111657
 20
59.4551855795
 10
-70.2347572539
 20
60.1326646534
 10
-71.5158003571
 20
60.6679230138
 10
-72.7753286275
 20
61.0564849282
 10
-74.0028101205
 20
61.2951013132
 10
-75.1879808608
 20
61.3817769023
 10
-76.3209306679
 20
61.3157869301
 10
-77.3921860229
 20
61.0976831926
 10
-78.392789285
 20
60.7292894333
 10
-78.9420022491
 20
60.4452910299
  0
LINE
  5
DB
330
C6
100
AcDbEntity
  8
0
  6
Continuous
 62
     7
370
    15
100
AcDbLine
 10
78.9420022491
 20
-57.8783838074
 30
0.0
 11
82.477536155
 21
-55.8373635278
 31
0.0
  0
LINE
  5
DC
330
C6
100
AcDbEntity
  8
0
  6
Continuous
 62
     7
370
    15
100
AcDbLine
 10
-78.9420022491
 20
60.4452910299
 30
0.0
 11
-82.477536155
 21
58.4042707503
 31
0.0
  0
LINE
  5
DD
330
C6
100
AcDbEntity
  8
0
  6
Continuous
 62
     7
370
    15
100
AcDbLine
 10
68.9429111657
 20
-24.2266458823
 30
0.0
 11
-72.4784450716
 21
57.4141652999
 31
0.0
  0
LINE
  5
DE
330
C6
100
AcDbEntity
  8
0
  6
Continuous
 62
     7
370
    15
100
AcDbLine
 10
-72.9229131073
 20
25.0171897048
 30
0.0
 11
69.3873792014
 21
-57.1367933484
 31
0.0
  0
LINE
  5
DF
330
C6
100
AcDbEntity
  8
0
  6
Continuous
 62
     7
370
    15
100
AcDbLine
 10
68.9429111657
 20
-24.2266458823
 30
0.0
 11
72.4784450716
 21
-22.1856256028
 31
0.0
  0
LINE
  5
E0
330
C6
100
AcDbEntity
  8
0
  6
Continuous
 62
     7
370
    15
100
AcDbLine
 10
-72.4784450716
 20
57.4141652999
 30
0.0
 11
-68.9429111657
 21
59.4551855795
 31
0.0
  0
LINE
  5
E1
330
C6
100
AcDbEntity
  8
0
  6
Continuous
 62
     7
370
    15
100
AcDbLine
 10
72.4784450716
 20
-22.1856256028
 30
0.0
 11
-68.9429111657
 21
59.4551855795
 31
0.0
  0
VIEWPORT
  5
141
330
C6
100
AcDbEntity
  8
0
100
AcDbViewport
 10
0.0
 20
0.0
 30
0.0
 40
243.84
 41
204.216
 68
     1
 69
     1
 12
0.0
 22
1.2861839654
 13
0.0
 23
0.0
 14
10.0
 24
10.0
 15
10.0
 25
10.0
 16
0.0
 26
0.0
 36
1.0
 17
0.0
 27
0.0
 37
0.0
 42
50.0
 43
0.0
 44
0.0
 45
147.9881135052
 50
0.0
 51
0.0
 72
   100
 90
   557152
  1

281
     0
 71
     1
 74
     0
110
0.0
120
0.0
130
0.0
111
1.0
121
0.0
131
0.0
112
0.0
122
1.0
132
0.0
 79
     0
146
0.0
170
     0
 61
     5
292
     1
282
     1
141
0.0
142
0.0
 63
   256
  0
ENDBLK
  5
C9
330
C6
100
AcDbEntity
  8
0
100
AcDbBlockEnd
  0
BLOCK
  5
E4
330
E2
100
AcDbEntity
  8
0
100
AcDbBlockBegin
  2
*Paper_Space7
 70
     0
 10
0.0
 20
0.0
 30
0.0
  3
*Paper_Space7
  1

  0
LWPOLYLINE
  5
E9
330
E2
100
AcDbEntity
  8
0
  6
Continuous
 62
     7
370
    15
100
AcDbPolyline
 90
       35
 70
   128
 43
0.0
 10
87.8309948034
 20
-41.1140118744
 10
89.4436563804
 20
-41.4314315269
 10
91.0381836598
 20
-41.6016546626
 10
92.6012434966
 20
-41.623257907
 10
94.1197658708
 20
-41.4960606176
 10
95.5810531767
 20
-41.2211263948
 10
96.9728863974
 20
-40.8007541884
 10
98.2836272787
 20
-40.2384590735
 10
99.5023156455
 20
-39.538942859
 10
100.6187610488
 20
-38.7080547712
 10
101.6236279769
 20
-37.7527425442
 10
102.5085139166
 20
-36.6809943236
 10
103.2660196138
 20
-35.5017718719
 10
103.8898109446
 20
-34.2249356309
 10
104.3746718803
 20
-32.8611622715
 10
104.7165481025
 20
-31.4218554165
 10
104.912580905
 20
-29.9190502863
 10
104.9611310972
 20
-28.3653130618
 10
104.8617927115
 20
-26.7736358092
 10
104.6153963972
 20
-25.1573278419
 10
104.2240024752
 20
-23.529904431
 10
103.6908837096
 20
-21.9049737928
 10
103.020497942
 20
-20.2961232998
 10
102.2184508153
 20
-18.7168058648
 10
101.2914489006
 20
-17.1802274509
 10
100.247243618
 20
-15.6992366453
 10
99.0945664209
 20
-14.2862172217
 10
97.8430557847
 20
-12.9529845896
 10
96.503176612
 20
-11.7106869961
 10
95.0861327271
 20
-10.5697123059
 10
93.6037731911
 20
-9.5396011403
 10
92.068493223
 20
-8.6289671003
 10
90.4931305526
 20
-7.8454247407
 10
88.8908580737
 20
-7.1955258992
 10
87.2750736954
 20
-6.6847049109
  0
LWPOLYLINE
  5
EB
330
E2
100
AcDbEntity
  8
0
  6
Continuous
 62
     7
370
    15
100
AcDbPolyline
 90
       35
 70
   128
 43
0.0
 10
-89.6085506401
 20
41.3884740259
 10
-91.2243350184
 20
41.7559241815
 10
-92.8266074972
 20
41.9769519944
 10
-94.4019701677
 20
42.0497092706
 10
-95.9372501358
 20
41.9735876271
 10
-97.4196096717
 20
41.749223579
 10
-98.8366535567
 20
41.3784932175
 10
-100.1765327293
 20
40.8644965219
 10
-101.4280433655
 20
40.2115314384
 10
-102.5807205627
 20
39.4250579414
 10
-103.6249258452
 20
38.5116523782
 10
-104.55192776
 20
37.4789524787
 10
-105.3539748867
 20
36.3355934902
 10
-106.0243606543
 20
35.0911359711
 10
-106.5574794198
 20
33.7559858473
 10
-106.9488733419
 20
32.3413073993
 10
-107.1952696562
 20
30.8589299092
 10
-107.2946080419
 20
29.3212487459
 10
-107.2460578496
 20
27.7411217175
 10
-107.0500250472
 20
26.1317615568
 10
-106.7081488249
 20
24.5066254385
 10
-106.2232878893
 20
22.879302453
 10
-105.5994965584
 20
21.2633999771
 10
-104.8419908612
 20
19.6724298911
 10
-103.9571049216
 20
18.1196955954
 10
-102.9522379935
 20
16.6181807696
 10
-101.8357925901
 20
15.1804408056
 10
-100.6171042234
 20
13.8184978216
 10
-99.3063633421
 20
12.5437401353
 10
-97.9145301213
 20
11.3668270367
 10
-96.4532428155
 20
10.2975996577
 10
-94.9347204412
 20
9.3449986817
 10
-93.3716606045
 20
8.5169895834
 10
-91.7771333251
 20
7.8204960233
 10
-90.1644717481
 20
7.2613419528
  0
LWPOLYLINE
  5
EC
330
E2
100
AcDbEntity
  8
0
  6
Continuous
 62
     7
370
    15
100
AcDbPolyline
 90
       27
 70
   128
 43
0.0
 10
-86.9993968046
 20
23.5360159072
 10
-87.0752105752
 20
24.1617644734
 10
-87.2982458662
 20
24.7923559241
 10
-87.6555406772
 20
25.3911425764
 10
-88.1263303325
 20
25.9233251264
 10
-88.6832542486
 20
26.3579750589
 10
-89.2939460318
 20
26.6698320996
 10
-89.9229144954
 20
26.8407722508
 10
-90.5336062786
 20
26.8608610924
 10
-91.0905301946
 20
26.7289311338
 10
-91.5613198499
 20
26.4526496648
 10
-91.9186146609
 20
26.04807316
 10
-92.1416499519
 20
25.5387141353
 10
-92.2174637225
 20
24.9541746858
 10
-92.1416499519
 20
24.3284261197
 10
-91.9186146609
 20
23.6978346689
 10
-91.5613198499
 20
23.0990480167
 10
-91.0905301946
 20
22.5668654666
 10
-90.5336062786
 20
22.1322155342
 10
-89.9229144954
 20
21.8203584935
 10
-89.2939460318
 20
21.6494183422
 10
-88.6832542486
 20
21.6293295006
 10
-88.1263303325
 20
21.7612594592
 10
-87.6555406772
 20
22.0375409283
 10
-87.2982458662
 20
22.4421174331
 10
-87.0752105752
 20
22.9514764577
 10
-86.9993968046
 20
23.5360159072
  0
LWPOLYLINE
  5
ED
330
E2
100
AcDbEntity
  8
0
  6
Continuous
 62
     7
370
    15
100
AcDbPolyline
 90
       27
 70
   128
 43
0.0
 10
84.66591986
 20
-23.1189388194
 10
84.7417336306
 20
-23.7446873856
 10
84.9647689216
 20
-24.3752788363
 10
85.3220637326
 20
-24.9740654886
 10
85.7928533879
 20
-25.5062480387
 10
86.3497773039
 20
-25.9408979711
 10
86.9604690871
 20
-26.2527550118
 10
87.5894375507
 20
-26.4236951631
 10
88.2001293339
 20
-26.4437840046
 10
88.75705325
 20
-26.3118540461
 10
89.2278429053
 20
-26.035572577
 10
89.5851377163
 20
-25.6309960722
 10
89.8081730073
 20
-25.1216370475
 10
89.8839867779
 20
-24.5370975981
 10
89.8081730073
 20
-23.9113490319
 10
89.5851377163
 20
-23.2807575812
 10
89.2278429053
 20
-22.6819709289
 10
88.75705325
 20
-22.1497883789
 10
88.2001293339
 20
-21.7151384464
 10
87.5894375507
 20
-21.4032814057
 10
86.9604690871
 20
-21.2323412545
 10
86.3497773039
 20
-21.2122524129
 10
85.7928533879
 20
-21.3441823715
 10
85.3220637326
 20
-21.6204638405
 10
84.9647689216
 20
-22.0250403453
 10
84.7417336306
 20
-22.53439937
 10
84.66591986
 20
-23.1189388194
  0
LWPOLYLINE
  5
EE
330
E2
100
AcDbEntity
  8
0
  6
Continuous
 62
     7
370
    15
100
AcDbPolyline
 90
       27
 70
   128
 43
0.0
 10
-29.5123392721
 20
15.1366274146
 10
-29.5881530427
 20
15.7623759808
 10
-29.8111883337
 20
16.3929674315
 10
-30.1684831447
 20
16.9917540838
 10
-30.6392728
 20
17.5239366338
 10
-31.196196716
 20
17.9585865663
 10
-31.8068884992
 20
18.270443607
 10
-32.4358569629
 20
18.4413837583
 10
-33.046548746
 20
18.4614725998
 10
-33.6034726621
 20
18.3295426413
 10
-34.0742623174
 20
18.0532611722
 10
-34.4315571284
 20
17.6486846674
 10
-34.6545924194
 20
17.1393256427
 10
-34.73040619
 20
16.5547861933
 10
-34.6545924194
 20
15.9290376271
 10
-34.4315571284
 20
15.2984461764
 10
-34.0742623174
 20
14.6996595241
 10
-33.6034726621
 20
14.167476974
 10
-33.046548746
 20
13.7328270416
 10
-32.4358569629
 20
13.4209700009
 10
-31.8068884992
 20
13.2500298496
 10
-31.196196716
 20
13.2299410081
 10
-30.6392728
 20
13.3618709666
 10
-30.1684831447
 20
13.6381524357
 10
-29.8111883337
 20
14.0427289405
 10
-29.5881530427
 20
14.5520879652
 10
-29.5123392721
 20
15.1366274146
  0
LWPOLYLINE
  5
EF
330
E2
100
AcDbEntity
  8
0
  6
Continuous
 62
     7
370
    15
100
AcDbPolyline
 90
       27
 70
   128
 43
0.0
 10
-34.73040619
 20
-0.5885598208
 10
-34.6545924194
 20
-1.214308387
 10
-34.4315571284
 20
-1.8448998377
 10
-34.0742623174
 20
-2.4436864899
 10
-33.6034726621
 20
-2.97586904
 10
-33.046548746
 20
-3.4105189725
 10
-32.4358569629
 20
-3.7223760132
 10
-31.8068884992
 20
-3.8933161644
 10
-31.196196716
 20
-3.913405006
 10
-30.6392728
 20
-3.7814750474
 10
-30.1684831447
 20
-3.5051935784
 10
-29.8111883337
 20
-3.1006170735
 10
-29.5881530427
 20
-2.5912580489
 10
-29.5123392721
 20
-2.0067185994
 10
-29.5881530427
 20
-1.3809700332
 10
-29.8111883337
 20
-0.7503785825
 10
-30.1684831447
 20
-0.1515919303
 10
-30.6392728
 20
0.3805906198
 10
-31.196196716
 20
0.8152405523
 10
-31.8068884992
 20
1.127097593
 10
-32.4358569629
 20
1.2980377442
 10
-33.046548746
 20
1.3181265858
 10
-33.6034726621
 20
1.1861966272
 10
-34.0742623174
 20
0.9099151582
 10
-34.4315571284
 20
0.5053386534
 10
-34.6545924194
 20
-0.0040203713
 10
-34.73040619
 20
-0.5885598208
  0
LWPOLYLINE
  5
F0
330
E2
100
AcDbEntity
  8
0
  6
Continuous
 62
     7
370
    15
100
AcDbPolyline
 90
       27
 70
   128
 43
0.0
 10
32.3969292453
 20
-18.8323312273
 10
32.3211154747
 20
-18.2065826611
 10
32.0980801837
 20
-17.5759912104
 10
31.7407853727
 20
-16.9772045581
 10
31.2699957175
 20
-16.4450220081
 10
30.7130718014
 20
-16.0103720756
 10
30.1023800182
 20
-15.6985150349
 10
29.4734115546
 20
-15.5275748837
 10
28.8627197714
 20
-15.5074860421
 10
28.3057958553
 20
-15.6394160007
 10
27.8350062
 20
-15.9156974697
 10
27.477711389
 20
-16.3202739745
 10
27.254676098
 20
-16.8296329992
 10
27.1788623274
 20
-17.4141724487
 10
27.254676098
 20
-18.0399210148
 10
27.477711389
 20
-18.6705124655
 10
27.8350062
 20
-19.2692991178
 10
28.3057958553
 20
-19.8014816679
 10
28.8627197714
 20
-20.2361316003
 10
29.4734115546
 20
-20.547988641
 10
30.1023800182
 20
-20.7189287923
 10
30.7130718014
 20
-20.7390176338
 10
31.2699957175
 20
-20.6070876753
 10
31.7407853727
 20
-20.3308062062
 10
32.0980801837
 20
-19.9262297014
 10
32.3211154747
 20
-19.4168706768
 10
32.3969292453
 20
-18.8323312273
  0
LWPOLYLINE
  5
F1
330
E2
100
AcDbEntity
  8
0
  6
Continuous
 62
     7
370
    15
100
AcDbPolyline
 90
       27
 70
   128
 43
0.0
 10
27.1788623274
 20
-0.2708264346
 10
27.254676098
 20
-0.8965750008
 10
27.477711389
 20
-1.5271664515
 10
27.8350062
 20
-2.1259531038
 10
28.3057958553
 20
-2.6581356538
 10
28.8627197714
 20
-3.0927855863
 10
29.4734115546
 20
-3.404642627
 10
30.1023800182
 20
-3.5755827782
 10
30.7130718014
 20
-3.5956716198
 10
31.2699957175
 20
-3.4637416612
 10
31.7407853727
 20
-3.1874601922
 10
32.0980801837
 20
-2.7828836874
 10
32.3211154747
 20
-2.2735246627
 10
32.3969292453
 20
-1.6889852132
 10
32.3211154747
 20
-1.0632366471
 10
32.0980801837
 20
-0.4326451963
 10
31.7407853727
 20
0.1661414559
 10
31.2699957175
 20
0.698324006
 10
30.7130718014
 20
1.1329739384
 10
30.1023800182
 20
1.4448309791
 10
29.4734115546
 20
1.6157711304
 10
28.8627197714
 20
1.6358599719
 10
28.3057958553
 20
1.5039300134
 10
27.8350062
 20
1.2276485443
 10
27.477711389
 20
0.8230720395
 10
27.254676098
 20
0.3137130149
 10
27.1788623274
 20
-0.2708264346
  0
LWPOLYLINE
  5
F3
330
E2
100
AcDbEntity
  8
0
  6
Continuous
 62
     7
370
    15
100
AcDbPolyline
 90
       26
 70
   128
 43
0.0
 10
103.5779934366
 20
-35.8631006329
 10
103.9571049216
 20
-35.4751975102
 10
104.8419908612
 20
-34.4034492896
 10
105.5994965584
 20
-33.2242268378
 10
106.2232878893
 20
-31.9473905969
 10
106.7081488249
 20
-30.5836172375
 10
107.0500250472
 20
-29.1443103825
 10
107.2460578496
 20
-27.6415052523
 10
107.2946080419
 20
-26.0877680278
 10
107.1952696562
 20
-24.4960907751
 10
106.9488733419
 20
-22.8797828078
 10
106.5574794198
 20
-21.2523593969
 10
106.0243606543
 20
-19.6274287588
 10
105.3539748867
 20
-18.0185782658
 10
104.55192776
 20
-16.4392608308
 10
103.6249258452
 20
-14.9026824169
 10
102.5807205627
 20
-13.4216916113
 10
101.4280433655
 20
-12.0086721877
 10
100.1765327293
 20
-10.6754395556
 10
98.8366535567
 20
-9.433141962
 10
97.4196096717
 20
-8.2921672718
 10
95.9372501358
 20
-7.2620561063
 10
94.4019701677
 20
-6.3514220662
 10
92.8266074972
 20
-5.5678797066
 10
91.2243350184
 20
-4.9179808652
 10
89.6085506401
 20
-4.4071598768
  0
LINE
  5
FD
330
E2
100
AcDbEntity
  8
0
  6
Continuous
 62
     7
370
    15
100
AcDbLine
 10
101.2445164919
 20
-38.1406456669
 30
0.0
 11
103.5779934366
 21
-35.8631006329
 31
0.0
  0
LINE
  5
FE
330
E2
100
AcDbEntity
  8
0
  6
Continuous
 62
     7
370
    15
100
AcDbLine
 10
-101.2445164919
 20
40.8352677887
 30
0.0
 11
-103.5779934366
 21
38.5577227547
 31
0.0
  0
LINE
  5
FF
330
E2
100
AcDbEntity
  8
0
  6
Continuous
 62
     7
370
    15
100
AcDbLine
 10
87.2750736954
 20
-6.6847049109
 30
0.0
 11
-89.6085506401
 21
41.3884740259
 31
0.0
  0
LINE
  5
100
330
E2
100
AcDbEntity
  8
0
  6
Continuous
 62
     7
370
    15
100
AcDbLine
 10
-90.1644717481
 20
7.2613419528
 30
0.0
 11
87.8309948034
 21
-41.1140118744
 31
0.0
  0
LINE
  5
101
330
E2
100
AcDbEntity
  8
0
  6
Continuous
 62
     7
370
    15
100
AcDbLine
 10
87.2750736954
 20
-6.6847049109
 30
0.0
 11
89.6085506401
 21
-4.4071598768
 31
0.0
  0
LINE
  5
102
330
E2
100
AcDbEntity
  8
0
  6
Continuous
 62
     7
370
    15
100
AcDbLine
 10
-89.6085506401
 20
41.3884740259
 30
0.0
 11
-87.2750736954
 21
43.6660190599
 31
0.0
  0
LINE
  5
103
330
E2
100
AcDbEntity
  8
0
  6
Continuous
 62
     7
370
    15
100
AcDbLine
 10
89.6085506401
 20
-4.4071598768
 30
0.0
 11
-87.2750736954
 21
43.6660190599
 31
0.0
  0
ARC
  5
104
330
E2
100
AcDbEntity
  8
0
  6
Continuous
 62
     7
370
    15
100
AcDbCircle
 10
90.5777070865
 20
-20.604429281
 30
0.0
 40
3.603666637282272
100
AcDbArc
 50
190.2261637388
 51
258.3839034992
  0
ARC
  5
105
330
E2
100
AcDbEntity
  8
0
  6
Continuous
 62
     7
370
    15
100
AcDbCircle
 10
33.090649554
 20
2.2436831039
 30
0.0
 40
3.603666637282378
100
AcDbArc
 50
190.2261637388
 51
258.3839034992
  0
ARC
  5
106
330
E2
100
AcDbEntity
  8
0
  6
Continuous
 62
     7
370
    15
100
AcDbCircle
 10
33.090649554
 20
-14.8996629102
 30
0.0
 40
3.603666637282456
100
AcDbArc
 50
190.2261637388
 51
258.3839034992
  0
ARC
  5
107
330
E2
100
AcDbEntity
  8
0
  6
Continuous
 62
     7
370
    15
100
AcDbCircle
 10
-28.8186189634
 20
19.0692957317
 30
0.0
 40
3.603666637282386
100
AcDbArc
 50
190.2261637388
 51
258.3839034992
  0
ARC
  5
108
330
E2
100
AcDbEntity
  8
0
  6
Continuous
 62
     7
370
    15
100
AcDbCircle
 10
-28.8186189634
 20
1.9259497177
 30
0.0
 40
3.603666637282465
100
AcDbArc
 50
190.2261637388
 51
258.3839034992
  0
ARC
  5
109
330
E2
100
AcDbEntity
  8
0
  6
Continuous
 62
     7
370
    15
100
AcDbCircle
 10
-91.7982991642
 20
30.103434685
 30
0.0
 40
14.29696693599153
100
AcDbArc
 50
71.5560634606
 51
131.3544085898
  0
ARC
  5
10A
330
E2
100
AcDbEntity
  8
0
  6
Continuous
 62
     7
370
    15
100
AcDbCircle
 10
-86.305676496
 20
27.4686842243
 30
0.0
 40
3.603666637282022
100
AcDbArc
 50
190.2261637388
 51
258.3839034992
  0
VIEWPORT
  5
142
330
E2
100
AcDbEntity
  8
0
100
AcDbViewport
 10
0.0
 20
0.0
 30
0.0
 40
243.84
 41
204.216
 68
     1
 69
     1
 12
0.0
 22
1.2861839654
 13
0.0
 23
0.0
 14
10.0
 24
10.0
 15
10.0
 25
10.0
 16
0.0
 26
0.0
 36
1.0
 17
0.0
 27
0.0
 37
0.0
 42
50.0
 43
0.0
 44
0.0
 45
147.9881135052
 50
0.0
 51
0.0
 72
   100
 90
   557152
  1

281
     0
 71
     1
 74
     0
110
0.0
120
0.0
130
0.0
111
1.0
121
0.0
131
0.0
112
0.0
122
1.0
132
0.0
 79
     0
146
0.0
170
     0
 61
     5
292
     1
282
     1
141
0.0
142
0.0
 63
   256
  0
ENDBLK
  5
E5
330
E2
100
AcDbEntity
  8
0
100
AcDbBlockEnd
  0
BLOCK
  5
10D
330
10B
100
AcDbEntity
  8
0
100
AcDbBlockBegin
  2
*Paper_Space8
 70
     0
 10
0.0
 20
0.0
 30
0.0
  3
*Paper_Space8
  1

  0
LWPOLYLINE
  5
112
330
10B
100
AcDbEntity
  8
0
  6
Continuous
 62
     7
370
    15
100
AcDbPolyline
 90
       35
 70
   128
 43
0.0
 10
93.2455271403
 20
-30.0036404911
 10
94.9511760167
 20
-30.0855886947
 10
96.637644958
 20
-30.0086380964
 10
98.29083202
 20
-29.773432143
 10
99.8969135553
 20
-29.3819375836
 10
101.4424598043
 20
-28.837428024
 10
102.9145471927
 20
-28.1444565532
 10
104.3008663953
 20
-27.3088176719
 10
105.5898252649
 20
-26.3374988392
 10
106.7706457638
 20
-25.2386220452
 10
107.8334540872
 20
-24.0213758962
 10
108.7693632267
 20
-22.6959387817
 10
109.5705472815
 20
-21.2733937639
 10
110.2303068973
 20
-19.7656359035
 10
110.7431252852
 20
-18.1852727955
 10
111.1047143518
 20
-16.5455191467
 10
111.3120505555
 20
-14.8600862766
 10
111.363400189
 20
-13.1430674661
 10
111.258333876
 20
-11.4088201119
 10
110.9977301619
 20
-9.6718456725
 10
110.5837681671
 20
-7.94666841
 10
110.0199093659
 20
-6.2477139406
 10
109.3108686424
 20
-4.5891886101
 10
108.4625748652
 20
-2.9849607036
 10
107.4821213114
 20
-1.4484444809
 10
106.3777063539
 20
0.007511991
 10
105.1585649083
 20
1.3707342708
 10
103.834891212
 20
2.6298233435
 10
102.4177535819
 20
3.7742509371
 10
100.9190018632
 20
4.7944475576
 10
99.3511683431
 20
5.6818825079
 10
97.7273629583
 20
6.4291352195
 10
96.0611636719
 20
7.0299573022
 10
94.366502937
 20
7.4793247918
 10
92.6575511961
 20
7.7734801597
  0
LWPOLYLINE
  5
114
330
10B
100
AcDbEntity
  8
0
  6
Continuous
 62
     7
370
    15
100
AcDbPolyline
 90
       35
 70
   128
 43
0.0
 10
-94.4253181487
 20
31.3437061883
 10
-96.1342698895
 20
31.4801661829
 10
-97.8289306245
 20
31.4578130608
 10
-99.4951299109
 20
31.2768337348
 10
-101.1189352957
 20
30.9387415206
 10
-102.6867688158
 20
30.4463634835
 10
-104.1855205345
 20
29.8038167985
 10
-105.6026581646
 20
29.0164743231
 10
-106.9263318609
 20
28.090919671
 10
-108.1454733065
 20
27.0348921604
 10
-109.2498882639
 20
25.8572220999
 10
-110.2303418178
 20
24.5677569509
 10
-111.078635595
 20
23.1772789846
 10
-111.7876763185
 20
21.697415123
 10
-112.3515351196
 20
20.1405397166
 10
-112.7654971144
 20
18.5196710722
 10
-113.0261008286
 20
16.8483625964
 10
-113.1311671416
 20
15.1405894646
 10
-113.0798175081
 20
13.4106317626
 10
-112.8724813044
 20
11.6729550799
 10
-112.5108922378
 20
9.9420895505
 10
-111.9980738499
 20
8.2325083548
 10
-111.338314234
 20
6.5585066975
 10
-110.5371301792
 20
4.9340822737
 10
-109.6012210397
 20
3.3728182228
 10
-108.5384127164
 20
1.8877695488
 10
-107.3575922175
 20
0.4913539566
 10
-106.0686333478
 20
-0.8047519826
 10
-104.6823141452
 20
-1.9897104683
 10
-103.2102267569
 20
-3.0536130948
 10
-101.6646805078
 20
-3.9875637033
 10
-100.0585989725
 20
-4.7837527699
 10
-98.4054119106
 20
-5.4355227075
 10
-96.7189429693
 20
-5.9374235354
 10
-95.0132940928
 20
-6.2852584507
  0
LWPOLYLINE
  5
115
330
10B
100
AcDbEntity
  8
0
  6
Continuous
 62
     7
370
    15
100
AcDbPolyline
 90
       27
 70
   128
 43
0.0
 10
-91.6657185084
 20
12.1398484821
 10
-91.7459037589
 20
12.8155563417
 10
-91.9817994353
 20
13.4721993007
 10
-92.3596961383
 20
14.0716156569
 10
-92.857631885
 20
14.5789695105
 10
-93.4466684599
 20
14.9647752999
 10
-94.0925731982
 20
15.2066113947
 10
-94.7578084643
 20
15.2904231602
 10
-95.4037132025
 20
15.2113397613
 10
-95.9927497774
 20
14.9739572377
 10
-96.4906855241
 20
14.5920713987
 10
-96.8685822271
 20
14.0878760612
 10
-97.1044779035
 20
13.4906732256
 10
-97.184663154
 20
12.8351701499
 10
-97.1044779035
 20
12.1594622903
 10
-96.8685822271
 20
11.5028193314
 10
-96.4906855241
 20
10.9034029752
 10
-95.9927497774
 20
10.3960491215
 10
-95.4037132025
 20
10.0102433322
 10
-94.7578084643
 20
9.7684072373
 10
-94.0925731982
 20
9.6845954718
 10
-93.4466684599
 20
9.7636788707
 10
-92.857631885
 20
10.0010613943
 10
-92.3596961383
 20
10.3829472333
 10
-91.9817994353
 20
10.8871425708
 10
-91.7459037589
 20
11.4843454064
 10
-91.6657185084
 20
12.1398484821
  0
LWPOLYLINE
  5
116
330
10B
100
AcDbEntity
  8
0
  6
Continuous
 62
     7
370
    15
100
AcDbPolyline
 90
       27
 70
   128
 43
0.0
 10
89.8979515558
 20
-10.7350237976
 10
89.9781368064
 20
-11.4107316573
 10
90.2140324828
 20
-12.0673746162
 10
90.5919291857
 20
-12.6667909724
 10
91.0898649325
 20
-13.1741448261
 10
91.6789015073
 20
-13.5599506154
 10
92.3248062456
 20
-13.8017867102
 10
92.9900415117
 20
-13.8855984758
 10
93.63594625
 20
-13.8065150769
 10
94.2249828248
 20
-13.5691325532
 10
94.7229185716
 20
-13.1872467142
 10
95.1008152745
 20
-12.6830513767
 10
95.3367109509
 20
-12.0858485411
 10
95.4168962015
 20
-11.4303454655
 10
95.3367109509
 20
-10.7546376058
 10
95.1008152745
 20
-10.0979946469
 10
94.7229185716
 20
-9.4985782907
 10
94.2249828248
 20
-8.991224437
 10
93.63594625
 20
-8.6054186477
 10
92.9900415117
 20
-8.3635825529
 10
92.3248062456
 20
-8.2797707873
 10
91.6789015073
 20
-8.3588541862
 10
91.0898649325
 20
-8.5962367099
 10
90.5919291857
 20
-8.9781225489
 10
90.2140324828
 20
-9.4823178863
 10
89.9781368064
 20
-10.0795207219
 10
89.8979515558
 20
-10.7350237976
  0
LWPOLYLINE
  5
117
330
10B
100
AcDbEntity
  8
0
  6
Continuous
 62
     7
370
    15
100
AcDbPolyline
 90
       27
 70
   128
 43
0.0
 10
-30.8639132888
 20
12.4257071818
 10
-30.9440985394
 20
13.1014150414
 10
-31.1799942157
 20
13.7580580003
 10
-31.5578909187
 20
14.3574743565
 10
-32.0558266654
 20
14.8648282102
 10
-32.6448632403
 20
15.2506339995
 10
-33.2907679786
 20
15.4924700944
 10
-33.9560032447
 20
15.5762818599
 10
-34.601907983
 20
15.497198461
 10
-35.1909445578
 20
15.2598159373
 10
-35.6888803045
 20
14.8779300983
 10
-36.0667770075
 20
14.3737347609
 10
-36.3026726839
 20
13.7765319253
 10
-36.3828579345
 20
13.1210288496
 10
-36.3026726839
 20
12.4453209899
 10
-36.0667770075
 20
11.788678031
 10
-35.6888803045
 20
11.1892616748
 10
-35.1909445578
 20
10.6819078211
 10
-34.601907983
 20
10.2961020318
 10
-33.9560032447
 20
10.054265937
 10
-33.2907679786
 20
9.9704541715
 10
-32.6448632403
 20
10.0495375703
 10
-32.0558266654
 20
10.286920094
 10
-31.5578909187
 20
10.668805933
 10
-31.1799942157
 20
11.1730012705
 10
-30.9440985394
 20
11.7702041061
 10
-30.8639132888
 20
12.4257071818
  0
LWPOLYLINE
  5
118
330
10B
100
AcDbEntity
  8
0
  6
Continuous
 62
     7
370
    15
100
AcDbPolyline
 90
       27
 70
   128
 43
0.0
 10
-36.3828579345
 20
-5.7351519826
 10
-36.3026726839
 20
-6.4108598423
 10
-36.0667770075
 20
-7.0675028012
 10
-35.6888803045
 20
-7.6669191574
 10
-35.1909445578
 20
-8.1742730111
 10
-34.601907983
 20
-8.5600788004
 10
-33.9560032447
 20
-8.8019148952
 10
-33.2907679786
 20
-8.8857266608
 10
-32.6448632403
 20
-8.8066432619
 10
-32.0558266654
 20
-8.5692607382
 10
-31.5578909187
 20
-8.1873748992
 10
-31.1799942157
 20
-7.6831795617
 10
-30.9440985394
 20
-7.0859767261
 10
-30.8639132888
 20
-6.4304736504
 10
-30.9440985394
 20
-5.7547657908
 10
-31.1799942157
 20
-5.0981228319
 10
-31.5578909187
 20
-4.4987064757
 10
-32.0558266654
 20
-3.991352622
 10
-32.6448632403
 20
-3.6055468327
 10
-33.2907679786
 20
-3.3637107379
 10
-33.9560032447
 20
-3.2798989723
 10
-34.601907983
 20
-3.3589823712
 10
-35.1909445578
 20
-3.5963648949
 10
-35.6888803045
 20
-3.9782507339
 10
-36.0667770075
 20
-4.4824460713
 10
-36.3026726839
 20
-5.0796489069
 10
-36.3828579345
 20
-5.7351519826
  0
LWPOLYLINE
  5
119
330
10B
100
AcDbEntity
  8
0
  6
Continuous
 62
     7
370
    15
100
AcDbPolyline
 90
       27
 70
   128
 43
0.0
 10
34.6150909819
 20
-14.6800527604
 10
34.5349057313
 20
-14.0043449008
 10
34.2990100549
 20
-13.3477019419
 10
33.921113352
 20
-12.7482855857
 10
33.4231776052
 20
-12.240931732
 10
32.8341410304
 20
-11.8551259427
 10
32.1882362921
 20
-11.6132898478
 10
31.523001026
 20
-11.5294780823
 10
30.8770962877
 20
-11.6085614812
 10
30.2880597129
 20
-11.8459440048
 10
29.7901239661
 20
-12.2278298438
 10
29.4122272632
 20
-12.7320251813
 10
29.1763315868
 20
-13.3292280169
 10
29.0961463362
 20
-13.9847310926
 10
29.1763315868
 20
-14.6604389522
 10
29.4122272632
 20
-15.3170819112
 10
29.7901239661
 20
-15.9164982674
 10
30.2880597129
 20
-16.423852121
 10
30.8770962877
 20
-16.8096579104
 10
31.523001026
 20
-17.0514940052
 10
32.1882362921
 20
-17.1353057707
 10
32.8341410304
 20
-17.0562223718
 10
33.4231776052
 20
-16.8188398482
 10
33.921113352
 20
-16.4369540092
 10
34.2990100549
 20
-15.9327586717
 10
34.5349057313
 20
-15.3355558361
 10
34.6150909819
 20
-14.6800527604
  0
LWPOLYLINE
  5
11A
330
10B
100
AcDbEntity
  8
0
  6
Continuous
 62
     7
370
    15
100
AcDbPolyline
 90
       27
 70
   128
 43
0.0
 10
29.0961463362
 20
4.8714497396
 10
29.1763315868
 20
4.19574188
 10
29.4122272632
 20
3.539098921
 10
29.7901239661
 20
2.9396825648
 10
30.2880597129
 20
2.4323287112
 10
30.8770962877
 20
2.0465229218
 10
31.523001026
 20
1.804686827
 10
32.1882362921
 20
1.7208750615
 10
32.8341410304
 20
1.7999584604
 10
33.4231776052
 20
2.037340984
 10
33.921113352
 20
2.419226823
 10
34.2990100549
 20
2.9234221605
 10
34.5349057313
 20
3.5206249961
 10
34.6150909819
 20
4.1761280718
 10
34.5349057313
 20
4.8518359314
 10
34.2990100549
 20
5.5084788903
 10
33.921113352
 20
6.1078952465
 10
33.4231776052
 20
6.6152491002
 10
32.8341410304
 20
7.0010548895
 10
32.1882362921
 20
7.2428909844
 10
31.523001026
 20
7.3267027499
 10
30.8770962877
 20
7.247619351
 10
30.2880597129
 20
7.0102368274
 10
29.7901239661
 20
6.6283509884
 10
29.4122272632
 20
6.1241556509
 10
29.1763315868
 20
5.5269528153
 10
29.0961463362
 20
4.8714497396
  0
LWPOLYLINE
  5
11C
330
10B
100
AcDbEntity
  8
0
  6
Continuous
 62
     7
370
    15
100
AcDbPolyline
 90
       27
 70
   128
 43
0.0
 10
107.6539473867
 20
-24.5236607205
 10
108.5384127164
 20
-23.6795981343
 10
109.6012210397
 20
-22.4623519854
 10
110.5371301792
 20
-21.1369148709
 10
111.338314234
 20
-19.714369853
 10
111.9980738499
 20
-18.2066119926
 10
112.5108922378
 20
-16.6262488847
 10
112.8724813044
 20
-14.9864952359
 10
113.0798175081
 20
-13.3010623658
 10
113.1311671416
 20
-11.5840435553
 10
113.0261008286
 20
-9.8497962011
 10
112.7654971144
 20
-8.1128217617
 10
112.3515351196
 20
-6.3876444992
 10
111.7876763185
 20
-4.6886900297
 10
111.078635595
 20
-3.0301646993
 10
110.2303418178
 20
-1.4259367928
 10
109.2498882639
 20
0.11057943
 10
108.1454733065
 20
1.5665359019
 10
106.9263318609
 20
2.9297581816
 10
105.6026581646
 20
4.1888472543
 10
104.1855205345
 20
5.3332748479
 10
102.6867688158
 20
6.3534714684
 10
101.1189352957
 20
7.2409064187
 10
99.4951299109
 20
7.9881591304
 10
97.8289306245
 20
8.5889812131
 10
96.1342698895
 20
9.0383487027
 10
94.4253181487
 20
9.3325040706
  0
LWPOLYLINE
  5
11F
330
10B
100
AcDbEntity
  8
0
  6
Continuous
 62
     7
370
    15
100
AcDbPolyline
 90
        3
 70
   128
 43
0.0
 10
91.6657185084
 20
-9.1759998868
 10
91.7459037589
 20
-8.5204968111
 10
91.8017402391
 20
-8.3306889716
  0
LWPOLYLINE
  5
121
330
10B
100
AcDbEntity
  8
0
  6
Continuous
 62
     7
370
    15
100
AcDbPolyline
 90
        3
 70
   128
 43
0.0
 10
30.8639132888
 20
6.4304736504
 10
30.9440985394
 20
7.0859767261
 10
30.9999350195
 20
7.2757845657
  0
LWPOLYLINE
  5
123
330
10B
100
AcDbEntity
  8
0
  6
Continuous
 62
     7
370
    15
100
AcDbPolyline
 90
        3
 70
   128
 43
0.0
 10
30.8639132888
 20
-12.4257071818
 10
30.9440985394
 20
-11.7702041061
 10
30.9999350195
 20
-11.5803962665
  0
LWPOLYLINE
  5
125
330
10B
100
AcDbEntity
  8
0
  6
Continuous
 62
     7
370
    15
100
AcDbPolyline
 90
        3
 70
   128
 43
0.0
 10
-34.6150909819
 20
14.6800527604
 10
-34.5349057313
 20
15.3355558361
 10
-34.4790692512
 20
15.5253636757
  0
LWPOLYLINE
  5
127
330
10B
100
AcDbEntity
  8
0
  6
Continuous
 62
     7
370
    15
100
AcDbPolyline
 90
        3
 70
   128
 43
0.0
 10
-34.6150909819
 20
-4.1761280718
 10
-34.5349057313
 20
-3.5206249961
 10
-34.4790692512
 20
-3.3308171565
  0
LWPOLYLINE
  5
12A
330
10B
100
AcDbEntity
  8
0
  6
Continuous
 62
     7
370
    15
100
AcDbPolyline
 90
        3
 70
   128
 43
0.0
 10
-95.4168962015
 20
14.3941940608
 10
-95.3367109509
 20
15.0496971364
 10
-95.2808744708
 20
15.239504976
  0
LINE
  5
12C
330
10B
100
AcDbEntity
  8
0
  6
Continuous
 62
     7
370
    15
100
AcDbLine
 10
105.8861804341
 20
-26.0826846314
 30
0.0
 11
107.6539473867
 21
-24.5236607205
 31
0.0
  0
LINE
  5
12D
330
10B
100
AcDbEntity
  8
0
  6
Continuous
 62
     7
370
    15
100
AcDbLine
 10
-105.8861804341
 20
29.0465332267
 30
0.0
 11
-107.6539473867
 21
27.4875093159
 31
0.0
  0
LINE
  5
12E
330
10B
100
AcDbEntity
  8
0
  6
Continuous
 62
     7
370
    15
100
AcDbLine
 10
92.6575511961
 20
7.7734801597
 30
0.0
 11
-94.4253181487
 21
31.3437061883
 31
0.0
  0
LINE
  5
12F
330
10B
100
AcDbEntity
  8
0
  6
Continuous
 62
     7
370
    15
100
AcDbLine
 10
-95.0132940928
 20
-6.2852584507
 30
0.0
 11
93.2455271403
 21
-30.0036404911
 31
0.0
  0
LINE
  5
130
330
10B
100
AcDbEntity
  8
0
  6
Continuous
 62
     7
370
    15
100
AcDbLine
 10
92.6575511961
 20
7.7734801597
 30
0.0
 11
94.4253181487
 21
9.3325040706
 31
0.0
  0
LINE
  5
131
330
10B
100
AcDbEntity
  8
0
  6
Continuous
 62
     7
370
    15
100
AcDbLine
 10
-94.4253181487
 20
31.3437061883
 30
0.0
 11
-92.6575511961
 21
32.9027300991
 31
0.0
  0
LINE
  5
132
330
10B
100
AcDbEntity
  8
0
  6
Continuous
 62
     7
370
    15
100
AcDbLine
 10
94.4253181487
 20
9.3325040706
 30
0.0
 11
-92.6575511961
 21
32.9027300991
 31
0.0
  0
ARC
  5
133
330
10B
100
AcDbEntity
  8
0
  6
Continuous
 62
     7
370
    15
100
AcDbCircle
 10
94.817027703
 20
-9.1586228909
 30
0.0
 40
3.151357104515656
100
AcDbArc
 50
180.315938034
 51
278.4640905944
  0
ARC
  5
134
330
10B
100
AcDbEntity
  8
0
  6
Continuous
 62
     7
370
    15
100
AcDbCircle
 10
34.0152224834
 20
6.4478506463
 30
0.0
 40
3.151357104515701
100
AcDbArc
 50
180.315938034
 51
278.4640905944
  0
ARC
  5
135
330
10B
100
AcDbEntity
  8
0
  6
Continuous
 62
     7
370
    15
100
AcDbCircle
 10
34.0152224834
 20
-12.4083301859
 30
0.0
 40
3.151357104515718
100
AcDbArc
 50
180.315938034
 51
278.4640905944
  0
ARC
  5
136
330
10B
100
AcDbEntity
  8
0
  6
Continuous
 62
     7
370
    15
100
AcDbCircle
 10
-31.4637817873
 20
14.6974297563
 30
0.0
 40
3.151357104515708
100
AcDbArc
 50
180.315938034
 51
278.4640905944
  0
ARC
  5
137
330
10B
100
AcDbEntity
  8
0
  6
Continuous
 62
     7
370
    15
100
AcDbCircle
 10
-31.4637817873
 20
-4.1587510759
 30
0.0
 40
3.151357104515722
100
AcDbArc
 50
180.315938034
 51
278.4640905944
  0
ARC
  5
138
330
10B
100
AcDbEntity
  8
0
  6
Continuous
 62
     7
370
    15
100
AcDbCircle
 10
-95.0360758565
 20
16.4438136711
 30
0.0
 40
16.62989204843034
100
AcDbArc
 50
81.77695243
 51
130.7262657061
  0
ARC
  5
139
330
10B
100
AcDbEntity
  8
0
  6
Continuous
 62
     7
370
    15
100
AcDbCircle
 10
-92.2655870068
 20
14.4115710566
 30
0.0
 40
3.151357104515733
100
AcDbArc
 50
180.315938034
 51
278.4640905944
  0
VIEWPORT
  5
143
330
10B
100
AcDbEntity
  8
0
100
AcDbViewport
 10
0.0
 20
0.0
 30
0.0
 40
243.84
 41
204.216
 68
     1
 69
     1
 12
0.0
 22
1.2861839654
 13
0.0
 23
0.0
 14
10.0
 24
10.0
 15
10.0
 25
10.0
 16
0.0
 26
0.0
 36
1.0
 17
0.0
 27
0.0
 37
0.0
 42
50.0
 43
0.0
 44
0.0
 45
147.9881135052
 50
0.0
 51
0.0
 72
   100
 90
   557152
  1

281
     0
 71
     1
 74
     0
110
0.0
120
0.0
130
0.0
111
1.0
121
0.0
131
0.0
112
0.0
122
1.0
132
0.0
 79
     0
146
0.0
170
     0
 61
     5
292
     1
282
     1
141
0.0
142
0.0
 63
   256
  0
ENDBLK
  5
10E
330
10B
100
AcDbEntity
  8
0
100
AcDbBlockEnd
  0
ENDSEC
  0
SECTION
  2
ENTITIES
  0
LWPOLYLINE
  5
43
330
1F
100
AcDbEntity
  8
0
  6
Continuous
 62
     7
370
    15
100
AcDbPolyline
 90
       35
 70
   128
 43
0.0
 10
69.3873792014
 20
-57.1367933484
 10
70.6767285588
 20
-57.7659803286
 10
71.9515792481
 20
-58.2512723682
 10
73.2012712013
 20
-58.5886115438
 10
74.4153547235
 20
-58.7751770872
 10
75.5836778705
 20
-58.8094089715
 10
76.6964713384
 20
-58.6910209559
 10
77.744430152
 20
-58.4210029793
 10
78.7187914718
 20
-58.0016128825
 10
79.6114078669
 20
-57.4363575288
 10
80.4148154426
 20
-56.7299634797
 10
81.122296252
 20
-55.888337473
 10
81.7279344701
 20
-54.918517031
 10
82.2266658611
 20
-53.8286116146
 10
82.6143201246
 20
-52.6277348132
 10
82.8876557665
 20
-51.3259281386
 10
83.0443872045
 20
-49.9340770596
 10
83.0832038788
 20
-48.46381998
 10
83.0037812116
 20
-46.9274509201
 10
82.8067833206
 20
-45.3378167164
 10
82.4938574662
 20
-43.7082095988
 10
82.0676202769
 20
-42.0522560436
 10
81.5316358702
 20
-40.3838028309
 10
80.8903860492
 20
-38.7168012607
 10
80.1492328277
 20
-37.0651904948
 10
79.314373593
 20
-35.4427809998
 10
78.392789285
 20
-33.8631390665
 10
77.3921860229
 20
-32.3394733715
 10
76.3209306679
 20
-30.884524528
 10
75.1879808608
 20
-29.5104585518
 10
74.0028101205
 20
-28.2287651306
 10
72.7753286275
 20
-27.0501615501
 10
71.5158003571
 20
-25.9845030775
 10
70.2347572539
 20
-25.0407005537
 10
68.9429111657
 20
-24.2266458823
  0
LWPOLYLINE
  5
45
330
1F
100
AcDbEntity
  8
0
  6
Continuous
 62
     7
370
    15
100
AcDbPolyline
 90
       35
 70
   128
 43
0.0
 10
-72.4784450716
 20
57.4141652999
 10
-73.7702911598
 20
58.0916443739
 10
-75.051334263
 20
58.6269027342
 10
-76.3108625334
 20
59.0154646487
 10
-77.5383440264
 20
59.2540810337
 10
-78.7235147668
 20
59.3407566228
 10
-79.8564645738
 20
59.2747666505
 10
-80.9277199289
 20
59.056662913
 10
-81.9283231909
 20
58.6882691537
 10
-82.8499074989
 20
58.1726658137
 10
-83.6847667336
 20
57.5141642738
 10
-84.4259199552
 20
56.718270803
 10
-85.0671697761
 20
55.7916405169
 10
-85.6031541829
 20
54.7420217279
 10
-86.0293913721
 20
53.5781911563
 10
-86.3423172265
 20
52.3098805398
 10
-86.5393151175
 20
50.9476952596
 10
-86.6187377847
 20
49.5030256594
 10
-86.5799211104
 20
47.9879518015
 10
-86.4231896725
 20
46.4151424562
 10
-86.1498540305
 20
44.7977491668
 10
-85.762199767
 20
43.1492962797
 10
-85.263468376
 20
41.483567856
 10
-84.6578301579
 20
39.8144924114
 10
-83.9503493486
 20
38.1560264492
 10
-83.1469417729
 20
36.5220377576
 10
-82.2543253778
 20
34.9261894509
 10
-81.279964058
 20
33.38182572
 10
-80.2320052444
 20
31.9018602517
 10
-79.1192117765
 20
30.4986682459
 10
-77.9508886294
 20
29.183982937
 10
-76.7368051073
 20
27.9687974829
 10
-75.487113154
 20
26.8632730415
 10
-74.2122624647
 20
25.8766538057
 10
-72.9229131073
 20
25.0171897048
  0
LWPOLYLINE
  5
46
330
1F
100
AcDbEntity
  8
0
  6
Continuous
 62
     7
370
    15
100
AcDbPolyline
 90
       27
 70
   128
 43
0.0
 10
-70.3923838241
 20
39.8790915378
 10
-70.4529981761
 20
40.4905459284
 10
-70.6313185461
 20
41.1364486535
 10
-70.9169816025
 20
41.7792621945
 10
-71.2933856467
 20
42.3816285649
 10
-71.7386554438
 20
42.9085404206
 10
-72.2269135319
 20
43.3293755601
 10
-72.7297841254
 20
43.6196765745
 10
-73.2180422134
 20
43.7625722242
 10
-73.6633120106
 20
43.7497579333
 10
-74.0397160548
 20
43.581978422
 10
-74.3253791112
 20
43.2689844255
 10
-74.5036994812
 20
42.8289660172
 10
-74.5643138331
 20
42.2874954676
 10
-74.5036994812
 20
41.676041077
 10
-74.3253791112
 20
41.0301383519
 10
-74.0397160548
 20
40.3873248109
 10
-73.6633120106
 20
39.7849584406
 10
-73.2180422134
 20
39.2580465848
 10
-72.7297841254
 20
38.8372114454
 10
-72.2269135319
 20
38.5469104309
 10
-71.7386554438
 20
38.4040147813
 10
-71.2933856467
 20
38.4168290721
 10
-70.9169816025
 20
38.5846085835
 10
-70.6313185461
 20
38.89760258
 10
-70.4529981761
 20
39.3376209882
 10
-70.3923838241
 20
39.8790915378
  0
LWPOLYLINE
  5
47
330
1F
100
AcDbEntity
  8
0
  6
Continuous
 62
     7
370
    15
100
AcDbPolyline
 90
       27
 70
   128
 43
0.0
 10
66.8568499182
 20
-39.3532045948
 10
66.9174642702
 20
-39.9646589855
 10
67.0957846402
 20
-40.6105617106
 10
67.3814476965
 20
-41.2533752516
 10
67.7578517407
 20
-41.8557416219
 10
68.2031215379
 20
-42.3826534777
 10
68.6913796259
 20
-42.8034886171
 10
69.1942502195
 20
-43.0937896316
 10
69.6825083075
 20
-43.2366852812
 10
70.1277781047
 20
-43.2238709904
 10
70.5041821489
 20
-43.056091479
 10
70.7898452052
 20
-42.7430974825
 10
70.9681655753
 20
-42.3030790743
 10
71.0287799272
 20
-41.7616085247
 10
70.9681655753
 20
-41.1501541341
 10
70.7898452052
 20
-40.5042514089
 10
70.5041821489
 20
-39.861437868
 10
70.1277781047
 20
-39.2590714976
 10
69.6825083075
 20
-38.7321596419
 10
69.1942502195
 20
-38.3113245024
 10
68.6913796259
 20
-38.021023488
 10
68.2031215379
 20
-37.8781278383
 10
67.7578517407
 20
-37.8909421292
 10
67.3814476965
 20
-38.0587216405
 10
67.0957846402
 20
-38.371715637
 10
66.9174642702
 20
-38.8117340453
 10
66.8568499182
 20
-39.3532045948
  0
LWPOLYLINE
  5
48
330
1F
100
AcDbEntity
  8
0
  6
Continuous
 62
     7
370
    15
100
AcDbPolyline
 90
       27
 70
   128
 43
0.0
 10
-24.43053929
 20
20.227837971
 10
-24.4911536419
 20
20.8392923617
 10
-24.669474012
 20
21.4851950868
 10
-24.9551370683
 20
22.1280086278
 10
-25.3315411125
 20
22.7303749981
 10
-25.7768109097
 20
23.2572868539
 10
-26.2650689977
 20
23.6781219933
 10
-26.7679395913
 20
23.9684230078
 10
-27.2561976793
 20
24.1113186574
 10
-27.7014674765
 20
24.0985043666
 10
-28.0778715207
 20
23.9307248552
 10
-28.363534577
 20
23.6177308587
 10
-28.5418549471
 20
23.1777124505
 10
-28.602469299
 20
22.6362419009
 10
-28.5418549471
 20
22.0247875103
 10
-28.363534577
 20
21.3788847851
 10
-28.0778715207
 20
20.7360712442
 10
-27.7014674765
 20
20.1337048738
 10
-27.2561976793
 20
19.606793018
 10
-26.7679395913
 20
19.1859578786
 10
-26.2650689977
 20
18.8956568642
 10
-25.7768109097
 20
18.7527612145
 10
-25.3315411125
 20
18.7655755054
 10
-24.9551370683
 20
18.9333550167
 10
-24.669474012
 20
19.2463490132
 10
-24.4911536419
 20
19.6863674215
 10
-24.43053929
 20
20.227837971
  0
LWPOLYLINE
  5
49
330
1F
100
AcDbEntity
  8
0
  6
Continuous
 62
     7
370
    15
100
AcDbPolyline
 90
       27
 70
   128
 43
0.0
 10
-28.602469299
 20
6.3054256632
 10
-28.5418549471
 20
5.6939712725
 10
-28.363534577
 20
5.0480685474
 10
-28.0778715207
 20
4.4052550065
 10
-27.7014674765
 20
3.8028886361
 10
-27.2561976793
 20
3.2759767803
 10
-26.7679395913
 20
2.8551416409
 10
-26.2650689977
 20
2.5648406265
 10
-25.7768109097
 20
2.4219449768
 10
-25.3315411125
 20
2.4347592677
 10
-24.9551370683
 20
2.602538779
 10
-24.669474012
 20
2.9155327755
 10
-24.4911536419
 20
3.3555511838
 10
-24.43053929
 20
3.8970217333
 10
-24.4911536419
 20
4.508476124
 10
-24.669474012
 20
5.1543788491
 10
-24.9551370683
 20
5.7971923901
 10
-25.3315411125
 20
6.3995587604
 10
-25.7768109097
 20
6.9264706162
 10
-26.2650689977
 20
7.3473057556
 10
-26.7679395913
 20
7.63760677
 10
-27.2561976793
 20
7.7805024197
 10
-27.7014674765
 20
7.7676881289
 10
-28.0778715207
 20
7.5999086175
 10
-28.363534577
 20
7.286914621
 10
-28.5418549471
 20
6.8468962127
 10
-28.602469299
 20
6.3054256632
  0
LWPOLYLINE
  5
4A
330
1F
100
AcDbEntity
  8
0
  6
Continuous
 62
     7
370
    15
100
AcDbPolyline
 90
       27
 70
   128
 43
0.0
 10
25.0669353931
 20
-24.6772621805
 10
25.0063210411
 20
-24.0658077898
 10
24.8280006711
 20
-23.4199050647
 10
24.5423376147
 20
-22.7770915237
 10
24.1659335705
 20
-22.1747251534
 10
23.7206637734
 20
-21.6478132976
 10
23.2324056853
 20
-21.2269781582
 10
22.7295350918
 20
-20.9366771438
 10
22.2412770038
 20
-20.7937814941
 10
21.7960072066
 20
-20.8065957849
 10
21.4196031624
 20
-20.9743752963
 10
21.133940106
 20
-21.2873692928
 10
20.955619736
 20
-21.727387701
 10
20.8950053841
 20
-22.2688582506
 10
20.955619736
 20
-22.8803126413
 10
21.133940106
 20
-23.5262153664
 10
21.4196031624
 20
-24.1690289073
 10
21.7960072066
 20
-24.7713952777
 10
22.2412770038
 20
-25.2983071335
 10
22.7295350918
 20
-25.7191422729
 10
23.2324056853
 20
-26.0094432873
 10
23.7206637734
 20
-26.152338937
 10
24.1659335705
 20
-26.1395246461
 10
24.5423376147
 20
-25.9717451348
 10
24.8280006711
 20
-25.6587511383
 10
25.0063210411
 20
-25.21873273
 10
25.0669353931
 20
-24.6772621805
  0
LWPOLYLINE
  5
4B
330
1F
100
AcDbEntity
  8
0
  6
Continuous
 62
     7
370
    15
100
AcDbPolyline
 90
       27
 70
   128
 43
0.0
 10
20.8950053841
 20
-5.9380420129
 10
20.955619736
 20
-6.5494964035
 10
21.133940106
 20
-7.1953991287
 10
21.4196031624
 20
-7.8382126696
 10
21.7960072066
 20
-8.44057904
 10
22.2412770038
 20
-8.9674908958
 10
22.7295350918
 20
-9.3883260352
 10
23.2324056853
 20
-9.6786270496
 10
23.7206637734
 20
-9.8215226993
 10
24.1659335705
 20
-9.8087084084
 10
24.5423376147
 20
-9.6409288971
 10
24.8280006711
 20
-9.3279349006
 10
25.0063210411
 20
-8.8879164923
 10
25.0669353931
 20
-8.3464459428
 10
25.0063210411
 20
-7.7349915521
 10
24.8280006711
 20
-7.089088827
 10
24.5423376147
 20
-6.446275286
 10
24.1659335705
 20
-5.8439089157
 10
23.7206637734
 20
-5.3169970599
 10
23.2324056853
 20
-4.8961619205
 10
22.7295350918
 20
-4.605860906
 10
22.2412770038
 20
-4.4629652564
 10
21.7960072066
 20
-4.4757795472
 10
21.4196031624
 20
-4.6435590586
 10
21.133940106
 20
-4.9565530551
 10
20.955619736
 20
-5.3965714633
 10
20.8950053841
 20
-5.9380420129
  0
LWPOLYLINE
  5
4D
330
1F
100
AcDbEntity
  8
0
  6
Continuous
 62
     7
370
    15
100
AcDbPolyline
 90
       27
 70
   128
 43
0.0
 10
82.477536155
 20
-55.8373635278
 10
83.1469417729
 20
-55.3953372492
 10
83.9503493486
 20
-54.6889432002
 10
84.6578301579
 20
-53.8473171934
 10
85.263468376
 20
-52.8774967514
 10
85.762199767
 20
-51.787591335
 10
86.1498540305
 20
-50.5867145337
 10
86.4231896725
 20
-49.284907859
 10
86.5799211104
 20
-47.8930567801
 10
86.6187377847
 20
-46.4227997005
 10
86.5393151175
 20
-44.8864306405
 10
86.3423172265
 20
-43.2967964368
 10
86.0293913721
 20
-41.6671893193
 10
85.6031541829
 20
-40.011235764
 10
85.0671697761
 20
-38.3427825513
 10
84.4259199552
 20
-36.6757809811
 10
83.6847667336
 20
-35.0241702153
 10
82.8499074989
 20
-33.4017607202
 10
81.9283231909
 20
-31.822118787
 10
80.9277199289
 20
-30.2984530919
 10
79.8564645738
 20
-28.8435042485
 10
78.7235147668
 20
-27.4694382722
 10
77.5383440264
 20
-26.1877448511
 10
76.3108625334
 20
-25.0091412706
 10
75.051334263
 20
-23.943482798
 10
73.7702911598
 20
-22.9996802741
 10
72.4784450716
 20
-22.1856256028
  0
LWPOLYLINE
  5
50
330
1F
100
AcDbEntity
  8
0
  6
Continuous
 62
     7
370
    15
100
AcDbPolyline
 90
       10
 70
   128
 43
0.0
 10
-68.9429111657
 20
59.4551855795
 10
-70.2347572539
 20
60.1326646534
 10
-71.5158003571
 20
60.6679230138
 10
-72.7753286275
 20
61.0564849282
 10
-74.0028101205
 20
61.2951013132
 10
-75.1879808608
 20
61.3817769023
 10
-76.3209306679
 20
61.3157869301
 10
-77.3921860229
 20
61.0976831926
 10
-78.392789285
 20
60.7292894333
 10
-78.9420022491
 20
60.4452910299
  0
LINE
  5
51
330
1F
100
AcDbEntity
  8
0
  6
Continuous
 62
     7
370
    15
100
AcDbLine
 10
78.9420022491
 20
-57.8783838074
 30
0.0
 11
82.477536155
 21
-55.8373635278
 31
0.0
  0
LINE
  5
52
330
1F
100
AcDbEntity
  8
0
  6
Continuous
 62
     7
370
    15
100
AcDbLine
 10
-78.9420022491
 20
60.4452910299
 30
0.0
 11
-82.477536155
 21
58.4042707503
 31
0.0
  0
LINE
  5
53
330
1F
100
AcDbEntity
  8
0
  6
Continuous
 62
     7
370
    15
100
AcDbLine
 10
68.9429111657
 20
-24.2266458823
 30
0.0
 11
-72.4784450716
 21
57.4141652999
 31
0.0
  0
LINE
  5
54
330
1F
100
AcDbEntity
  8
0
  6
Continuous
 62
     7
370
    15
100
AcDbLine
 10
-72.9229131073
 20
25.0171897048
 30
0.0
 11
69.3873792014
 21
-57.1367933484
 31
0.0
  0
LINE
  5
55
330
1F
100
AcDbEntity
  8
0
  6
Continuous
 62
     7
370
    15
100
AcDbLine
 10
68.9429111657
 20
-24.2266458823
 30
0.0
 11
72.4784450716
 21
-22.1856256028
 31
0.0
  0
LINE
  5
56
330
1F
100
AcDbEntity
  8
0
  6
Continuous
 62
     7
370
    15
100
AcDbLine
 10
-72.4784450716
 20
57.4141652999
 30
0.0
 11
-68.9429111657
 21
59.4551855795
 31
0.0
  0
LINE
  5
57
330
1F
100
AcDbEntity
  8
0
  6
Continuous
 62
     7
370
    15
100
AcDbLine
 10
72.4784450716
 20
-22.1856256028
 30
0.0
 11
-68.9429111657
 21
59.4551855795
 31
0.0
  0
CIRCLE
  5
58
330
1B
100
AcDbEntity
 67
     1
  8
0
  6
Continuous
 62
     7
370
    15
100
AcDbCircle
 10
-99.9998638919
 20
1.5718180801
 30
0.0
 40
2.950000000000003
  0
CIRCLE
  5
59
330
1B
100
AcDbEntity
 67
     1
  8
0
  6
Continuous
 62
     7
370
    15
100
AcDbCircle
 10
99.9998638919
 20
1.5718180801
 30
0.0
 40
2.950000000000003
  0
CIRCLE
  5
5A
330
1B
100
AcDbEntity
 67
     1
  8
0
  6
Continuous
 62
     7
370
    15
100
AcDbCircle
 10
-35.0
 20
10.0
 30
0.0
 40
2.949999999999996
  0
CIRCLE
  5
5B
330
1B
100
AcDbEntity
 67
     1
  8
0
  6
Continuous
 62
     7
370
    15
100
AcDbCircle
 10
-35.0
 20
-10.0
 30
0.0
 40
2.950000000000053
  0
CIRCLE
  5
5C
330
1B
100
AcDbEntity
 67
     1
  8
0
  6
Continuous
 62
     7
370
    15
100
AcDbCircle
 10
35.0
 20
-10.0
 30
0.0
 40
2.950000000000053
  0
CIRCLE
  5
5D
330
1B
100
AcDbEntity
 67
     1
  8
0
  6
Continuous
 62
     7
370
    15
100
AcDbCircle
 10
35.0
 20
10.0
 30
0.0
 40
2.949999999999996
  0
LINE
  5
62
330
1B
100
AcDbEntity
 67
     1
  8
0
  6
Continuous
 62
     7
370
    15
100
AcDbLine
 10
100.0
 20
21.5718180796
 30
0.0
 11
-100.0
 21
21.5718180796
 31
0.0
  0
LINE
  5
63
330
1B
100
AcDbEntity
 67
     1
  8
0
  6
Continuous
 62
     7
370
    15
100
AcDbLine
 10
-100.6285727242
 20
-18.4182976075
 30
0.0
 11
100.6285727242
 21
-18.4182976075
 31
0.0
  0
ARC
  5
64
330
1B
100
AcDbEntity
 67
     1
  8
0
  6
Continuous
 62
     7
370
    15
100
AcDbCircle
 10
99.9998638919
 20
1.5718180801
 30
0.0
 40
20.0
100
AcDbArc
 50
271.8014149038
 51
89.999610079
  0
ARC
  5
65
330
1B
100
AcDbEntity
 67
     1
  8
0
  6
Continuous
 62
     7
370
    15
100
AcDbCircle
 10
-99.9998638919
 20
1.5718180801
 30
0.0
 40
20.0
100
AcDbArc
 50
90.000389921
 51
268.1985850962
  0
VIEWPORT
  5
13A
330
1B
100
AcDbEntity
 67
     1
  8
0
100
AcDbViewport
 10
0.0
 20
0.0
 30
0.0
 40
243.84
 41
204.216
 68
     1
 69
     1
 12
0.0
 22
1.2861839654
 13
0.0
 23
0.0
 14
10.0
 24
10.0
 15
10.0
 25
10.0
 16
0.0
 26
0.0
 36
1.0
 17
0.0
 27
0.0
 37
0.0
 42
50.0
 43
0.0
 44
0.0
 45
147.9881135052
 50
0.0
 51
0.0
 72
   100
 90
   557152
  1

281
     0
 71
     1
 74
     0
110
0.0
120
0.0
130
0.0
111
1.0
121
0.0
131
0.0
112
0.0
122
1.0
132
0.0
 79
     0
146
0.0
170
     0
 61
     5
292
     1
282
     1
141
0.0
142
0.0
 63
   256
  0
ENDSEC
  0
SECTION
  2
OBJECTS
  0
DICTIONARY
  5
C
330
0
100
AcDbDictionary
281
     1
  3
ACAD_GROUP
350
D
  3
ACAD_LAYOUT
350
1A
  3
ACAD_MLEADERSTYLE
350
169
  3
ACAD_MLINESTYLE
350
17
  3
ACAD_PLOTSETTINGS
350
19
  3
ACAD_PLOTSTYLENAME
350
E
  3
ACAD_SCALELIST
350
144
  3
ACAD_TABLESTYLE
350
168
  3
ACAD_VISUALSTYLE
350
2A
  3
AcDbVariableDictionary
350
166
  0
DICTIONARY
  5
D
102
{ACAD_REACTORS
330
C
102
}
330
C
100
AcDbDictionary
281
     1
  0
DICTIONARY
  5
1A
102
{ACAD_REACTORS
330
C
102
}
330
C
100
AcDbDictionary
281
     1
  3
_Derecha
350
A7
  3
_Dimtrica
350
10C
  3
_Frontal
350
1E
  3
_Inferior
350
B3
  3
_Isomtrica
350
C7
  3
_Izquierda
350
9B
  3
_Normal a
350
77
  3
_Posterior
350
89
  3
_Superior
350
26
  3
_Trimtrica
350
E3
  3
Model
350
22
  0
DICTIONARY
  5
169
102
{ACAD_REACTORS
330
C
102
}
330
C
100
AcDbDictionary
281
     1
  0
DICTIONARY
  5
17
102
{ACAD_REACTORS
330
C
102
}
330
C
100
AcDbDictionary
281
     1
  3
Standard
350
18
  0
DICTIONARY
  5
19
102
{ACAD_REACTORS
330
C
102
}
330
C
100
AcDbDictionary
281
     1
  0
ACDBDICTIONARYWDFLT
  5
E
102
{ACAD_REACTORS
330
C
102
}
330
C
100
AcDbDictionary
281
     1
  3
Normal
350
F
100
AcDbDictionaryWithDefault
340
F
  0
DICTIONARY
  5
144
102
{ACAD_REACTORS
330
C
102
}
330
C
100
AcDbDictionary
281
     1
  3
A0
350
145
  3
A1
350
146
  3
A2
350
147
  3
A3
350
148
  3
A4
350
149
  3
A5
350
14A
  3
A6
350
14B
  3
A7
350
14C
  3
A8
350
14D
  3
A9
350
14E
  3
B0
350
14F
  3
B1
350
150
  3
B2
350
151
  3
B3
350
152
  3
B4
350
153
  3
B5
350
154
  3
B6
350
155
  3
B7
350
156
  3
B8
350
157
  3
B9
350
158
  3
C0
350
159
  3
C1
350
15A
  3
C2
350
15B
  3
C3
350
15C
  3
C4
350
15D
  3
C5
350
15E
  3
C6
350
15F
  3
C7
350
160
  3
C8
350
161
  3
C9
350
162
  3
D0
350
163
  3
D1
350
164
  3
D2
350
165
  0
DICTIONARY
  5
168
102
{ACAD_REACTORS
330
C
102
}
330
C
100
AcDbDictionary
281
     1
  0
DICTIONARY
  5
2A
102
{ACAD_REACTORS
330
C
102
}
330
C
100
AcDbDictionary
281
     1
  3
2dWireframe
350
2F
  3
3D Hidden
350
31
  3
3dWireframe
350
30
  3
Basic
350
32
  3
Brighten
350
36
  3
ColorChange
350
3A
  3
Conceptual
350
34
  3
Dim
350
35
  3
Facepattern
350
39
  3
Flat
350
2B
  3
FlatWithEdges
350
2C
  3
Gouraud
350
2D
  3
GouraudWithEdges
350
2E
  3
Linepattern
350
38
  3
Realistic
350
33
  3
Thicken
350
37
  0
DICTIONARY
  5
166
102
{ACAD_REACTORS
330
C
102
}
330
C
100
AcDbDictionary
281
     1
  3
CANNOSCALE
350
167
  0
LAYOUT
  5
A7
102
{ACAD_REACTORS
330
1A
102
}
330
1A
100
AcDbPlotSettings
  1

  2
none_device
  4

  6

 40
0.0
 41
0.0
 42
0.0
 43
0.0
 44
0.0
 45
0.0
 46
0.0
 47
0.0
 48
0.0
 49
0.0
140
0.0
141
0.0
142
1.0
143
1.0
 70
   688
 72
     0
 73
     0
 74
     5
  7

 75
    16
 76
     0
 77
     2
 78
   300
147
1.0
148
0.0
149
0.0
100
AcDbLayout
  1
_Derecha
 70
     1
 71
     6
 10
0.0
 20
0.0
 11
0.0
 21
0.0
 12
0.0
 22
0.0
 32
0.0
 14
0.0
 24
0.0
 34
0.0
 15
0.0
 25
0.0
 35
0.0
146
0.0
 13
0.0
 23
0.0
 33
0.0
 16
1.0
 26
0.0
 36
0.0
 17
0.0
 27
1.0
 37
0.0
 76
     0
330
A6
331
13F
  0
LAYOUT
  5
10C
102
{ACAD_REACTORS
330
1A
102
}
330
1A
100
AcDbPlotSettings
  1

  2
none_device
  4

  6

 40
0.0
 41
0.0
 42
0.0
 43
0.0
 44
0.0
 45
0.0
 46
0.0
 47
0.0
 48
0.0
 49
0.0
140
0.0
141
0.0
142
1.0
143
1.0
 70
   688
 72
     0
 73
     0
 74
     5
  7

 75
    16
 76
     0
 77
     2
 78
   300
147
1.0
148
0.0
149
0.0
100
AcDbLayout
  1
_Dimtrica
 70
     1
 71
    10
 10
0.0
 20
0.0
 11
0.0
 21
0.0
 12
0.0
 22
0.0
 32
0.0
 14
0.0
 24
0.0
 34
0.0
 15
0.0
 25
0.0
 35
0.0
146
0.0
 13
0.0
 23
0.0
 33
0.0
 16
1.0
 26
0.0
 36
0.0
 17
0.0
 27
1.0
 37
0.0
 76
     0
330
10B
331
143
  0
LAYOUT
  5
1E
102
{ACAD_REACTORS
330
1A
102
}
330
1A
100
AcDbPlotSettings
  1

  2
none_device
  4

  6

 40
0.0
 41
0.0
 42
0.0
 43
0.0
 44
0.0
 45
0.0
 46
0.0
 47
0.0
 48
0.0
 49
0.0
140
0.0
141
0.0
142
1.0
143
1.0
 70
   688
 72
     0
 73
     0
 74
     5
  7

 75
    16
 76
     0
 77
     2
 78
   300
147
1.0
148
0.0
149
0.0
100
AcDbLayout
  1
_Frontal
 70
     1
 71
     1
 10
0.0
 20
0.0
 11
420.0
 21
297.0
 12
0.0
 22
0.0
 32
0.0
 14
-119.9998638919
 24
-18.4182976075
 34
0.0
 15
119.9998638919
 25
21.5718180796
 35
0.0
146
0.0
 13
0.0
 23
0.0
 33
0.0
 16
1.0
 26
0.0
 36
0.0
 17
0.0
 27
1.0
 37
0.0
 76
     0
330
1B
331
13A
  0
LAYOUT
  5
B3
102
{ACAD_REACTORS
330
1A
102
}
330
1A
100
AcDbPlotSettings
  1

  2
none_device
  4

  6

 40
0.0
 41
0.0
 42
0.0
 43
0.0
 44
0.0
 45
0.0
 46
0.0
 47
0.0
 48
0.0
 49
0.0
140
0.0
141
0.0
142
1.0
143
1.0
 70
   688
 72
     0
 73
     0
 74
     5
  7

 75
    16
 76
     0
 77
     2
 78
   300
147
1.0
148
0.0
149
0.0
100
AcDbLayout
  1
_Inferior
 70
     1
 71
     7
 10
0.0
 20
0.0
 11
0.0
 21
0.0
 12
0.0
 22
0.0
 32
0.0
 14
0.0
 24
0.0
 34
0.0
 15
0.0
 25
0.0
 35
0.0
146
0.0
 13
0.0
 23
0.0
 33
0.0
 16
1.0
 26
0.0
 36
0.0
 17
0.0
 27
1.0
 37
0.0
 76
     0
330
B2
331
140
  0
LAYOUT
  5
C7
102
{ACAD_REACTORS
330
1A
102
}
330
1A
100
AcDbPlotSettings
  1

  2
none_device
  4

  6

 40
0.0
 41
0.0
 42
0.0
 43
0.0
 44
0.0
 45
0.0
 46
0.0
 47
0.0
 48
0.0
 49
0.0
140
0.0
141
0.0
142
1.0
143
1.0
 70
   688
 72
     0
 73
     0
 74
     5
  7

 75
    16
 76
     0
 77
     2
 78
   300
147
1.0
148
0.0
149
0.0
100
AcDbLayout
  1
_Isomtrica
 70
     1
 71
     8
 10
0.0
 20
0.0
 11
0.0
 21
0.0
 12
0.0
 22
0.0
 32
0.0
 14
0.0
 24
0.0
 34
0.0
 15
0.0
 25
0.0
 35
0.0
146
0.0
 13
0.0
 23
0.0
 33
0.0
 16
1.0
 26
0.0
 36
0.0
 17
0.0
 27
1.0
 37
0.0
 76
     0
330
C6
331
141
  0
LAYOUT
  5
9B
102
{ACAD_REACTORS
330
1A
102
}
330
1A
100
AcDbPlotSettings
  1

  2
none_device
  4

  6

 40
0.0
 41
0.0
 42
0.0
 43
0.0
 44
0.0
 45
0.0
 46
0.0
 47
0.0
 48
0.0
 49
0.0
140
0.0
141
0.0
142
1.0
143
1.0
 70
   688
 72
     0
 73
     0
 74
     5
  7

 75
    16
 76
     0
 77
     2
 78
   300
147
1.0
148
0.0
149
0.0
100
AcDbLayout
  1
_Izquierda
 70
     1
 71
     5
 10
0.0
 20
0.0
 11
0.0
 21
0.0
 12
0.0
 22
0.0
 32
0.0
 14
0.0
 24
0.0
 34
0.0
 15
0.0
 25
0.0
 35
0.0
146
0.0
 13
0.0
 23
0.0
 33
0.0
 16
1.0
 26
0.0
 36
0.0
 17
0.0
 27
1.0
 37
0.0
 76
     0
330
9A
331
13E
  0
LAYOUT
  5
77
102
{ACAD_REACTORS
330
1A
102
}
330
1A
100
AcDbPlotSettings
  1

  2
none_device
  4

  6

 40
0.0
 41
0.0
 42
0.0
 43
0.0
 44
0.0
 45
0.0
 46
0.0
 47
0.0
 48
0.0
 49
0.0
140
0.0
141
0.0
142
1.0
143
1.0
 70
   688
 72
     0
 73
     0
 74
     5
  7

 75
    16
 76
     0
 77
     2
 78
   300
147
1.0
148
0.0
149
0.0
100
AcDbLayout
  1
_Normal a
 70
     1
 71
     3
 10
0.0
 20
0.0
 11
0.0
 21
0.0
 12
0.0
 22
0.0
 32
0.0
 14
0.0
 24
0.0
 34
0.0
 15
0.0
 25
0.0
 35
0.0
146
0.0
 13
0.0
 23
0.0
 33
0.0
 16
1.0
 26
0.0
 36
0.0
 17
0.0
 27
1.0
 37
0.0
 76
     0
330
76
331
13C
  0
LAYOUT
  5
89
102
{ACAD_REACTORS
330
1A
102
}
330
1A
100
AcDbPlotSettings
  1

  2
none_device
  4

  6

 40
0.0
 41
0.0
 42
0.0
 43
0.0
 44
0.0
 45
0.0
 46
0.0
 47
0.0
 48
0.0
 49
0.0
140
0.0
141
0.0
142
1.0
143
1.0
 70
   688
 72
     0
 73
     0
 74
     5
  7

 75
    16
 76
     0
 77
     2
 78
   300
147
1.0
148
0.0
149
0.0
100
AcDbLayout
  1
_Posterior
 70
     1
 71
     4
 10
0.0
 20
0.0
 11
0.0
 21
0.0
 12
0.0
 22
0.0
 32
0.0
 14
0.0
 24
0.0
 34
0.0
 15
0.0
 25
0.0
 35
0.0
146
0.0
 13
0.0
 23
0.0
 33
0.0
 16
1.0
 26
0.0
 36
0.0
 17
0.0
 27
1.0
 37
0.0
 76
     0
330
88
331
13D
  0
LAYOUT
  5
26
102
{ACAD_REACTORS
330
1A
102
}
330
1A
100
AcDbPlotSettings
  1

  2
none_device
  4

  6

 40
0.0
 41
0.0
 42
0.0
 43
0.0
 44
0.0
 45
0.0
 46
0.0
 47
0.0
 48
0.0
 49
0.0
140
0.0
141
0.0
142
1.0
143
1.0
 70
   688
 72
     0
 73
     0
 74
     5
  7

 75
    16
 76
     0
 77
     2
 78
   300
147
1.0
148
0.0
149
0.0
100
AcDbLayout
  1
_Superior
 70
     1
 71
     2
 10
0.0
 20
0.0
 11
0.0
 21
0.0
 12
0.0
 22
0.0
 32
0.0
 14
0.0
 24
0.0
 34
0.0
 15
0.0
 25
0.0
 35
0.0
146
0.0
 13
0.0
 23
0.0
 33
0.0
 16
1.0
 26
0.0
 36
0.0
 17
0.0
 27
1.0
 37
0.0
 76
     0
330
23
331
13B
  0
LAYOUT
  5
E3
102
{ACAD_REACTORS
330
1A
102
}
330
1A
100
AcDbPlotSettings
  1

  2
none_device
  4

  6

 40
0.0
 41
0.0
 42
0.0
 43
0.0
 44
0.0
 45
0.0
 46
0.0
 47
0.0
 48
0.0
 49
0.0
140
0.0
141
0.0
142
1.0
143
1.0
 70
   688
 72
     0
 73
     0
 74
     5
  7

 75
    16
 76
     0
 77
     2
 78
   300
147
1.0
148
0.0
149
0.0
100
AcDbLayout
  1
_Trimtrica
 70
     1
 71
     9
 10
0.0
 20
0.0
 11
0.0
 21
0.0
 12
0.0
 22
0.0
 32
0.0
 14
0.0
 24
0.0
 34
0.0
 15
0.0
 25
0.0
 35
0.0
146
0.0
 13
0.0
 23
0.0
 33
0.0
 16
1.0
 26
0.0
 36
0.0
 17
0.0
 27
1.0
 37
0.0
 76
     0
330
E2
331
142
  0
LAYOUT
  5
22
102
{ACAD_REACTORS
330
1A
102
}
330
1A
100
AcDbPlotSettings
  1

  2
none_device
  4
ANSI_A_(11.00_x_8.50_Inches)
  6

 40
6.35
 41
19.05
 42
6.35000508
 43
19.05000254
 44
279.4
 45
215.9
 46
133.34999746
 47
86.8463656996
 48
0.0
 49
0.0
140
0.0
141
0.0
142
0.0628616872
143
1.0
 70
  1696
 72
     0
 73
     0
 74
     0
  7

 75
     0
 76
     0
 77
     2
 78
   300
147
0.0179189148
148
0.0
149
0.0
100
AcDbLayout
  1
Model
 70
     1
 71
     0
 10
0.0
 20
0.0
 11
420.0
 21
297.0
 12
0.0
 22
0.0
 32
0.0
 14
-86.6187377847
 24
-58.8094089715
 34
0.0
 15
86.6187377847
 25
61.3817769023
 35
0.0
146
0.0
 13
0.0
 23
0.0
 33
0.0
 16
1.0
 26
0.0
 36
0.0
 17
0.0
 27
1.0
 37
0.0
 76
     0
330
1F
331
29
  0
MLINESTYLE
  5
18
102
{ACAD_REACTORS
330
17
102
}
330
17
100
AcDbMlineStyle
  2
Standard
 70
     0
  3

 62
   256
 51
90.0
 52
90.0
 71
     2
 49
0.5
 62
   256
  6
BYLAYER
 49
-0.5
 62
   256
  6
BYLAYER
  0
ACDBPLACEHOLDER
  5
F
102
{ACAD_REACTORS
330
E
102
}
330
E
  0
SCALE
  5
145
102
{ACAD_REACTORS
330
144
102
}
330
144
100
AcDbScale
 70
     0
300
1:1
140
1.0
141
1.0
290
     1
  0
SCALE
  5
146
102
{ACAD_REACTORS
330
144
102
}
330
144
100
AcDbScale
 70
     0
300
1:2
140
1.0
141
2.0
290
     0
  0
SCALE
  5
147
102
{ACAD_REACTORS
330
144
102
}
330
144
100
AcDbScale
 70
     0
300
1:4
140
1.0
141
4.0
290
     0
  0
SCALE
  5
148
102
{ACAD_REACTORS
330
144
102
}
330
144
100
AcDbScale
 70
     0
300
1:5
140
1.0
141
5.0
290
     0
  0
SCALE
  5
149
102
{ACAD_REACTORS
330
144
102
}
330
144
100
AcDbScale
 70
     0
300
1:8
140
1.0
141
8.0
290
     0
  0
SCALE
  5
14A
102
{ACAD_REACTORS
330
144
102
}
330
144
100
AcDbScale
 70
     0
300
1:10
140
1.0
141
10.0
290
     0
  0
SCALE
  5
14B
102
{ACAD_REACTORS
330
144
102
}
330
144
100
AcDbScale
 70
     0
300
1:16
140
1.0
141
16.0
290
     0
  0
SCALE
  5
14C
102
{ACAD_REACTORS
330
144
102
}
330
144
100
AcDbScale
 70
     0
300
1:20
140
1.0
141
20.0
290
     0
  0
SCALE
  5
14D
102
{ACAD_REACTORS
330
144
102
}
330
144
100
AcDbScale
 70
     0
300
1:30
140
1.0
141
30.0
290
     0
  0
SCALE
  5
14E
102
{ACAD_REACTORS
330
144
102
}
330
144
100
AcDbScale
 70
     0
300
1:40
140
1.0
141
40.0
290
     0
  0
SCALE
  5
14F
102
{ACAD_REACTORS
330
144
102
}
330
144
100
AcDbScale
 70
     0
300
1:50
140
1.0
141
50.0
290
     0
  0
SCALE
  5
150
102
{ACAD_REACTORS
330
144
102
}
330
144
100
AcDbScale
 70
     0
300
1:100
140
1.0
141
100.0
290
     0
  0
SCALE
  5
151
102
{ACAD_REACTORS
330
144
102
}
330
144
100
AcDbScale
 70
     0
300
2:1
140
2.0
141
1.0
290
     0
  0
SCALE
  5
152
102
{ACAD_REACTORS
330
144
102
}
330
144
100
AcDbScale
 70
     0
300
4:1
140
4.0
141
1.0
290
     0
  0
SCALE
  5
153
102
{ACAD_REACTORS
330
144
102
}
330
144
100
AcDbScale
 70
     0
300
8:1
140
8.0
141
1.0
290
     0
  0
SCALE
  5
154
102
{ACAD_REACTORS
330
144
102
}
330
144
100
AcDbScale
 70
     0
300
10:1
140
10.0
141
1.0
290
     0
  0
SCALE
  5
155
102
{ACAD_REACTORS
330
144
102
}
330
144
100
AcDbScale
 70
     0
300
100:1
140
100.0
141
1.0
290
     0
  0
SCALE
  5
156
102
{ACAD_REACTORS
330
144
102
}
330
144
100
AcDbScale
 70
     0
300
1/128" = 1'-0"
140
0.0078125
141
12.0
290
     0
  0
SCALE
  5
157
102
{ACAD_REACTORS
330
144
102
}
330
144
100
AcDbScale
 70
     0
300
1/64" = 1'-0"
140
0.015625
141
12.0
290
     0
  0
SCALE
  5
158
102
{ACAD_REACTORS
330
144
102
}
330
144
100
AcDbScale
 70
     0
300
1/32" = 1'-0"
140
0.03125
141
12.0
290
     0
  0
SCALE
  5
159
102
{ACAD_REACTORS
330
144
102
}
330
144
100
AcDbScale
 70
     0
300
1/16" = 1'-0"
140
0.0625
141
12.0
290
     0
  0
SCALE
  5
15A
102
{ACAD_REACTORS
330
144
102
}
330
144
100
AcDbScale
 70
     0
300
3/32" = 1'-0"
140
0.09375
141
12.0
290
     0
  0
SCALE
  5
15B
102
{ACAD_REACTORS
330
144
102
}
330
144
100
AcDbScale
 70
     0
300
1/8" = 1'-0"
140
0.125
141
12.0
290
     0
  0
SCALE
  5
15C
102
{ACAD_REACTORS
330
144
102
}
330
144
100
AcDbScale
 70
     0
300
3/16" = 1'-0"
140
0.1875
141
12.0
290
     0
  0
SCALE
  5
15D
102
{ACAD_REACTORS
330
144
102
}
330
144
100
AcDbScale
 70
     0
300
1/4" = 1'-0"
140
0.25
141
12.0
290
     0
  0
SCALE
  5
15E
102
{ACAD_REACTORS
330
144
102
}
330
144
100
AcDbScale
 70
     0
300
3/8" = 1'-0"
140
0.375
141
12.0
290
     0
  0
SCALE
  5
15F
102
{ACAD_REACTORS
330
144
102
}
330
144
100
AcDbScale
 70
     0
300
1/2" = 1'-0"
140
0.5
141
12.0
290
     0
  0
SCALE
  5
160
102
{ACAD_REACTORS
330
144
102
}
330
144
100
AcDbScale
 70
     0
300
3/4" = 1'-0"
140
0.75
141
12.0
290
     0
  0
SCALE
  5
161
102
{ACAD_REACTORS
330
144
102
}
330
144
100
AcDbScale
 70
     0
300
1" = 1'-0"
140
1.0
141
12.0
290
     0
  0
SCALE
  5
162
102
{ACAD_REACTORS
330
144
102
}
330
144
100
AcDbScale
 70
     0
300
1-1/2" = 1'-0"
140
1.5
141
12.0
290
     0
  0
SCALE
  5
163
102
{ACAD_REACTORS
330
144
102
}
330
144
100
AcDbScale
 70
     0
300
3" = 1'-0"
140
3.0
141
12.0
290
     0
  0
SCALE
  5
164
102
{ACAD_REACTORS
330
144
102
}
330
144
100
AcDbScale
 70
     0
300
6" = 1'-0"
140
6.0
141
12.0
290
     0
  0
SCALE
  5
165
102
{ACAD_REACTORS
330
144
102
}
330
144
100
AcDbScale
 70
     0
300
1'-0" = 1'-0"
140
12.0
141
12.0
290
     0
  0
VISUALSTYLE
  5
2F
102
{ACAD_REACTORS
330
2A
102
}
330
2A
100
AcDbVisualStyle
  2
2dWireframe
 70
     4
 71
     0
 72
     2
 73
     0
 90
        0
 40
-0.6
 41
-30.0
 62
     5
 63
     7
421
 16777215
 74
     1
 91
        4
 64
     7
 65
   257
 75
     1
175
     1
 42
1.0
 92
        0
 66
   257
 43
1.0
 76
     1
 77
     6
 78
     2
 67
     7
 79
     5
170
     0
171
     0
290
     0
174
     0
 93
        1
 44
0.0
173
     0
291
     0
 45
0.0
  0
VISUALSTYLE
  5
31
102
{ACAD_REACTORS
330
2A
102
}
330
2A
100
AcDbVisualStyle
  2
3D Hidden
 70
     6
 71
     1
 72
     2
 73
     2
 90
        0
 40
-0.6
 41
-30.0
 62
     5
 63
     7
421
 16777215
 74
     2
 91
        2
 64
     7
 65
   257
 75
     2
175
     1
 42
40.0
 92
        0
 66
   257
 43
1.0
 76
     1
 77
     6
 78
     2
 67
     7
 79
     3
170
     0
171
     0
290
     0
174
     0
 93
        1
 44
0.0
173
     0
291
     0
 45
0.0
  0
VISUALSTYLE
  5
30
102
{ACAD_REACTORS
330
2A
102
}
330
2A
100
AcDbVisualStyle
  2
3dWireframe
 70
     5
 71
     0
 72
     2
 73
     0
 90
        0
 40
-0.6
 41
-30.0
 62
     5
 63
     7
421
 16777215
 74
     1
 91
        4
 64
     7
 65
   257
 75
     1
175
     1
 42
1.0
 92
        0
 66
   257
 43
1.0
 76
     1
 77
     6
 78
     2
 67
     7
 79
     5
170
     0
171
     0
290
     0
174
     0
 93
        1
 44
0.0
173
     0
291
     0
 45
0.0
  0
VISUALSTYLE
  5
32
102
{ACAD_REACTORS
330
2A
102
}
330
2A
100
AcDbVisualStyle
  2
Basic
 70
     7
 71
     1
 72
     0
 73
     1
 90
        0
 40
-0.6
 41
-30.0
 62
     5
 63
     7
421
 16777215
 74
     0
 91
        4
 64
     7
 65
   257
 75
     1
175
     1
 42
1.0
 92
        8
 66
     7
 43
1.0
 76
     1
 77
     6
 78
     2
 67
     7
 79
     5
170
     0
171
     0
290
     0
174
     0
 93
        1
 44
0.0
173
     0
291
     1
 45
0.0
  0
VISUALSTYLE
  5
36
102
{ACAD_REACTORS
330
2A
102
}
330
2A
100
AcDbVisualStyle
  2
Brighten
 70
    12
 71
     2
 72
     2
 73
     0
 90
        0
 40
-0.6
 41
-30.0
 62
     5
 63
     7
421
 16777215
 74
     1
 91
        4
 64
     7
 65
   257
 75
     1
175
     1
 42
1.0
 92
        8
 66
     7
 43
1.0
 76
     1
 77
     6
 78
     2
 67
     7
 79
     5
170
     0
171
     0
290
     0
174
     0
 93
        1
 44
50.0
173
     0
291
     1
 45
0.0
  0
VISUALSTYLE
  5
3A
102
{ACAD_REACTORS
330
2A
102
}
330
2A
100
AcDbVisualStyle
  2
ColorChange
 70
    16
 71
     2
 72
     2
 73
     3
 90
        0
 40
-0.6
 41
-30.0
 62
     5
 63
     8
421
  8421504
 74
     1
 91
        4
 64
     7
 65
   257
 75
     1
175
     1
 42
1.0
 92
        8
 66
     8
424
  8421504
 43
1.0
 76
     1
 77
     6
 78
     2
 67
     7
 79
     5
170
     0
171
     0
290
     0
174
     0
 93
        1
 44
0.0
173
     0
291
     1
 45
0.0
  0
VISUALSTYLE
  5
34
102
{ACAD_REACTORS
330
2A
102
}
330
2A
100
AcDbVisualStyle
  2
Conceptual
 70
     9
 71
     3
 72
     2
 73
     0
 90
        0
 40
-0.6
 41
-30.0
 62
     5
 63
     7
421
 16777215
 74
     2
 91
        2
 64
     7
 65
   257
 75
     1
175
     1
 42
40.0
 92
        8
 66
     7
 43
1.0
 76
     1
 77
     6
 78
     2
 67
     7
 79
     3
170
     0
171
     0
290
     0
174
     0
 93
        1
 44
0.0
173
     0
291
     0
 45
0.0
  0
VISUALSTYLE
  5
35
102
{ACAD_REACTORS
330
2A
102
}
330
2A
100
AcDbVisualStyle
  2
Dim
 70
    11
 71
     2
 72
     2
 73
     0
 90
        0
 40
-0.6
 41
-30.0
 62
     5
 63
     7
421
 16777215
 74
     1
 91
        4
 64
     7
 65
   257
 75
     1
175
     1
 42
1.0
 92
        8
 66
     7
 43
1.0
 76
     1
 77
     6
 78
     2
 67
     7
 79
     5
170
     0
171
     0
290
     0
174
     0
 93
        1
 44
-50.0
173
     0
291
     1
 45
0.0
  0
VISUALSTYLE
  5
39
102
{ACAD_REACTORS
330
2A
102
}
330
2A
100
AcDbVisualStyle
  2
Facepattern
 70
    15
 71
     2
 72
     2
 73
     0
 90
        0
 40
-0.6
 41
-30.0
 62
     5
 63
     7
421
 16777215
 74
     1
 91
        4
 64
     7
 65
   257
 75
     1
175
     1
 42
1.0
 92
        8
 66
     7
 43
1.0
 76
     1
 77
     6
 78
     2
 67
     7
 79
     5
170
     0
171
     0
290
     0
174
     0
 93
        1
 44
0.0
173
     0
291
     1
 45
0.0
  0
VISUALSTYLE
  5
2B
102
{ACAD_REACTORS
330
2A
102
}
330
2A
100
AcDbVisualStyle
  2
Flat
 70
     0
 71
     2
 72
     1
 73
     1
 90
        2
 40
-0.6
 41
30.0
 62
     5
 63
     7
421
 16777215
 74
     0
 91
        4
 64
     7
 65
   257
 75
     1
175
     1
 42
1.0
 92
        8
 66
     7
 43
1.0
 76
     1
 77
     6
 78
     2
 67
     7
 79
     5
170
     0
171
     0
290
     0
174
     0
 93
       13
 44
0.0
173
     0
291
     1
 45
0.0
  0
VISUALSTYLE
  5
2C
102
{ACAD_REACTORS
330
2A
102
}
330
2A
100
AcDbVisualStyle
  2
FlatWithEdges
 70
     1
 71
     2
 72
     1
 73
     1
 90
        2
 40
-0.6
 41
30.0
 62
     5
 63
     7
421
 16777215
 74
     1
 91
        4
 64
     7
 65
   257
 75
     1
175
     1
 42
1.0
 92
        0
 66
   257
 43
1.0
 76
     1
 77
     6
 78
     2
 67
     7
 79
     5
170
     0
171
     0
290
     0
174
     0
 93
       13
 44
0.0
173
     0
291
     1
 45
0.0
  0
VISUALSTYLE
  5
2D
102
{ACAD_REACTORS
330
2A
102
}
330
2A
100
AcDbVisualStyle
  2
Gouraud
 70
     2
 71
     2
 72
     2
 73
     1
 90
        2
 40
-0.6
 41
30.0
 62
     5
 63
     7
421
 16777215
 74
     0
 91
        4
 64
     7
 65
   257
 75
     1
175
     1
 42
1.0
 92
        0
 66
     7
 43
1.0
 76
     1
 77
     6
 78
     2
 67
     7
 79
     5
170
     0
171
     0
290
     0
174
     0
 93
       13
 44
0.0
173
     0
291
     1
 45
0.0
  0
VISUALSTYLE
  5
2E
102
{ACAD_REACTORS
330
2A
102
}
330
2A
100
AcDbVisualStyle
  2
GouraudWithEdges
 70
     3
 71
     2
 72
     2
 73
     1
 90
        2
 40
-0.6
 41
30.0
 62
     5
 63
     7
421
 16777215
 74
     1
 91
        4
 64
     7
 65
   257
 75
     1
175
     1
 42
1.0
 92
        0
 66
   257
 43
1.0
 76
     1
 77
     6
 78
     2
 67
     7
 79
     5
170
     0
171
     0
290
     0
174
     0
 93
       13
 44
0.0
173
     0
291
     1
 45
0.0
  0
VISUALSTYLE
  5
38
102
{ACAD_REACTORS
330
2A
102
}
330
2A
100
AcDbVisualStyle
  2
Linepattern
 70
    14
 71
     2
 72
     2
 73
     0
 90
        0
 40
-0.6
 41
-30.0
 62
     5
 63
     7
421
 16777215
 74
     1
 91
        4
 64
     7
 65
   257
 75
     7
175
     7
 42
1.0
 92
        8
 66
     7
 43
1.0
 76
     1
 77
     6
 78
     2
 67
     7
 79
     5
170
     0
171
     0
290
     0
174
     0
 93
        1
 44
0.0
173
     0
291
     1
 45
0.0
  0
VISUALSTYLE
  5
33
102
{ACAD_REACTORS
330
2A
102
}
330
2A
100
AcDbVisualStyle
  2
Realistic
 70
     8
 71
     2
 72
     2
 73
     0
 90
        0
 40
-0.6
 41
-30.0
 62
     5
 63
     7
421
 16777215
 74
     1
 91
        0
 64
     7
 65
   257
 75
     1
175
     1
 42
1.0
 92
        8
 66
     8
424
  7895160
 43
1.0
 76
     1
 77
     6
 78
     2
 67
     7
 79
     5
170
     0
171
     0
290
     0
174
     0
 93
       13
 44
0.0
173
     0
291
     0
 45
0.0
  0
VISUALSTYLE
  5
37
102
{ACAD_REACTORS
330
2A
102
}
330
2A
100
AcDbVisualStyle
  2
Thicken
 70
    13
 71
     2
 72
     2
 73
     0
 90
        0
 40
-0.6
 41
-30.0
 62
     5
 63
     7
421
 16777215
 74
     1
 91
        4
 64
     7
 65
   257
 75
     1
175
     1
 42
1.0
 92
       12
 66
     7
 43
1.0
 76
     1
 77
     6
 78
     2
 67
     7
 79
     5
170
     0
171
     0
290
     0
174
     0
 93
        1
 44
0.0
173
     0
291
     1
 45
0.0
  0
DICTIONARYVAR
  5
167
102
{ACAD_REACTORS
330
166
102
}
330
166
100
DictionaryVariables
280
     0
  1
1:1
  0
ENDSEC
  0
EOF
